/* XPM */
static char *result[] = {
/* columns rows colors chars-per-pixel */
"64 64 208 2 ",
"   c #000000",
".  c #0D0A07",
"X  c #0C0C0C",
"o  c #0A0703",
"O  c #120E09",
"+  c #120D06",
"@  c #191104",
"#  c #1D170C",
"$  c #1B140A",
"%  c #151515",
"&  c #1B1B1B",
"*  c #271C0B",
"=  c #2D210D",
"-  c #2B2111",
";  c #382B14",
":  c #36260F",
">  c #232323",
",  c #2B2B2B",
"<  c #37332F",
"1  c #3B3632",
"2  c #442D05",
"3  c #47381B",
"4  c #553B1C",
"5  c #5F3913",
"6  c #563A0A",
"7  c #66330C",
"8  c #69350C",
"9  c #693908",
"0  c #723B02",
"q  c #733D09",
"w  c #6B3A13",
"e  c #673C19",
"r  c #693A10",
"t  c #723F13",
"y  c #42372F",
"u  c #523D28",
"i  c #53411D",
"p  c #67420B",
"a  c #7A430B",
"s  c #7E490F",
"d  c #774108",
"f  c #65411F",
"g  c #764214",
"h  c #7A4415",
"j  c #77481A",
"k  c #75531F",
"l  c #785108",
"z  c #5D4626",
"x  c #594938",
"c  c #744E29",
"v  c #685024",
"b  c #7B532E",
"n  c #684C30",
"m  c #664B32",
"M  c #785532",
"N  c #735435",
"B  c #6A4725",
"V  c #605040",
"C  c #777777",
"Z  c #656565",
"A  c #814B0B",
"S  c #895509",
"D  c #834E14",
"F  c #855116",
"G  c #8B541B",
"H  c #8D581B",
"J  c #865318",
"K  c #935C16",
"L  c #925A1C",
"P  c #985F16",
"I  c #9F650F",
"U  c #9B6112",
"Y  c #AB6E04",
"T  c #A3690D",
"R  c #AA6E08",
"E  c #BC6F0F",
"W  c #AE7305",
"Q  c #AF750A",
"!  c #B17604",
"~  c #B57903",
"^  c #B97B07",
"/  c #BD720F",
"(  c #B77B08",
")  c #BA7D0A",
"_  c #B0730D",
"`  c #A26810",
"'  c #AF7A13",
"]  c #BF7411",
"[  c #B17A14",
"{  c #B47F1A",
"}  c #8F5A20",
"|  c #915C23",
" . c #905F2B",
".. c #886327",
"X. c #936325",
"o. c #99662B",
"O. c #9B692E",
"+. c #976628",
"@. c #8A6434",
"#. c #9E6C31",
"$. c #9A7836",
"%. c #A5762B",
"&. c #A06E33",
"*. c #A37236",
"=. c #A67539",
"-. c #C97A20",
";. c #836449",
":. c #917150",
">. c #8A7058",
",. c #BB810F",
"<. c #BD8312",
"1. c #B5811B",
"2. c #BF881B",
"3. c #B9841F",
"4. c #A88239",
"5. c #B2893D",
"6. c #BB8A38",
"7. c #C18515",
"8. c #C58C1D",
"9. c #C88C1E",
"0. c #C18817",
"q. c #CE8222",
"w. c #C68E21",
"e. c #C98D21",
"r. c #C78A2E",
"t. c #D08624",
"y. c #D28A25",
"u. c #D28C28",
"i. c #C79025",
"p. c #CA9224",
"a. c #C69229",
"s. c #CB942B",
"d. c #CF982D",
"f. c #D5932E",
"g. c #D4942B",
"h. c #CE9B34",
"j. c #C9963A",
"k. c #D69530",
"l. c #D99633",
"z. c #D49B33",
"x. c #D99A35",
"c. c #D39D3B",
"v. c #DB9C39",
"b. c #C88C32",
"n. c #D4A13C",
"m. c #DBA23D",
"M. c #BD975E",
"N. c #A88B5A",
"B. c #95836F",
"V. c #8F857D",
"C. c #958575",
"Z. c #958678",
"A. c #978978",
"S. c #B9A57C",
"D. c #B19771",
"F. c #CA9949",
"G. c #C49753",
"H. c #C99950",
"J. c #D59E45",
"K. c #D5A443",
"L. c #DEA542",
"P. c #DEAA45",
"I. c #D4A349",
"U. c #DCAB4B",
"Y. c #D7AA4E",
"T. c #DCAF51",
"R. c #DAAF5B",
"E. c #DDB155",
"W. c #DFB459",
"Q. c #CDA554",
"!. c #E0A642",
"~. c #E0AB47",
"^. c #E2AD4A",
"/. c #E4B14E",
"(. c #E5B351",
"). c #E2B55A",
"_. c #E6B95D",
"`. c #E8BA5E",
"'. c #C5A76D",
"]. c #E6BC63",
"[. c #E9BC62",
"{. c #EABF69",
"}. c #E6BE6A",
"|. c #E7C06D",
" X c #EAC26C",
".X c #EAC066",
"XX c #EBC472",
"oX c #EECA7B",
"OX c #9B9B9A",
"+X c #9A9894",
"@X c #868686",
"#X c #A19A8C",
"$X c #A69A87",
"%X c #A09A91",
"&X c #A3A2A2",
"*X c #ACACAC",
"=X c #ABA9A7",
"-X c #B2B0AD",
";X c #B1B1B1",
":X c #BCBBBB",
">X c #EFCC80",
",X c #C4C4C4",
"<X c #CECDCA",
"1X c #CBCAC7",
"2X c #D0CFCC",
"3X c #D4D4D4",
"4X c #DBDAD9",
"5X c gray89",
/* pixels */
"                                                                                                                                ",
"                                                          x r 7 9 9 b                                                           ",
"                                                      n q q G #.*.X.D 0 c                                                       ",
"                                                  z q d } #.o.*.=.*.*.o.s 0 j y                                                 ",
"                                              - 0 h | &.| G G G o.&.*.*.=.O.D 0 g                                               ",
"                                            0 D X.O.| H G G G G G L  .&.=.*.=.#.G q g                                           ",
"                                        9 D o.o.| G G G G L G G G G G } | #.*.*.*.#.H d r                                       ",
"                                    7 G +.+.} } G G G H G G G P U K G G H H | O.#.=.*.#.} a B                                   ",
"                                  w D | | G G H J H H H U T ! ,.! ! R P G G H G | o.*.*.*.+.0 x                                 ",
"                                4 0 G G G G G H H U I ! ,.2.Y. XXX).s.) W W U G G G H o.*.=.} q                                 ",
"                                0 F G G G G K T Q ! 2.n.}.XX[..XoX>X>XXXW.a.~ W R U G G X.*.*.s j                               ",
"                              q h G G G P W ( 2.n.}.XX`.(.T.(.(.^._. XoX>XoXoXT.a.) ! T G o.*.#.d n                             ",
"                            e a G G G L ! h.). X].)././.m.m.(./.(.^.L.^.[. XoXoXoX XI.) U H #.=.| q x                           ",
"                          u 0 F G G G R <.`.)././.P.d.8.,.,.n.(.^.~.7.) 0.p.P.].oX>XoXK.! K } =.*.F g                           ",
"                          0 D G H H ` ~ m./.P.w.,.~ ,.8.h.,.z./.(.m.) s.s.<.( ~ 0.n. XoXw.W G X.*.*.a c                         ",
"                        t a G H G H ! p./.^.0.,.h.E._._.W.,.z./.^.m.^ K.XX X).K.8.( L.oX|.( U G O.*.o.q V                       ",
"                      f q L G G G R 0././.8.,./._.(.(./.P.,.z././.!.) g.(.`..X X Xs.,.).oXY.! K G #.=.} q                       ",
"                    O 0 F G G G ` ~ m./.z.~ n./.^./.^./.^.,.z././.m.) d./././.(..X|.<.8. XoXa.W G } =.#.s j                     ",
"                    0 D G G G P ! d./.P.^ p.^./././.(.(.P.,.z././.m.~ d././.(./.(. XE.~ h.oX X,.I G O.=.*.0 n                   ",
"                  B q G G G G Y ] (./.,.0.~./././.(.(././.,.z././.m.,.z./././././.(.|.c.~ /.oXY.! P G #.=.| 0 <                 ",
"                m 0 t L G G ` ^ m./.p.~ m./././././.(./.^.,.n.(./.m.^ d././././././..X.X0.<. XoXs.Q H } *.*.F g                 ",
"                0 8 t G G K ! t.^.m.~ n./././.(./.(.(./.^.,.d.Y.P.v.^ z./././././.(.(..X_.,.i.oX|.<.T G X.*.&.a N               ",
"                0 8 t G G P ^ u.^.,.8././././.(./.T.(.T.6.p = # # * 2 %.U././././././.). XU.~ K.oXh.W G G O.*.D M               ",
"                0 8 h G L ` ^ f.z.~ m./././././.(.(.K.v X X % > > & X o ; 5././././././._.XX0.i. Xn.Q @.@. .*.F M               ",
"                0 7 g G G P ^ f.g.~ m././././././.Y.- X > > > , , , , , % X $.(././.(././..X0.p.).h.[ +X+XZ.| D M               ",
"                0 7 h G G U ^ u.g.~ m./././././.P.; X % & % % % % % > , , & X 4.(./././././.0.8./.z.3.4X;XZ.| D M               ",
"                0 7 g G G U ) f.d.~ m./././././.@.o % % % % % % % % & & > , % = U././././.(.0.8./.z.1.3X;XZ.| D M               ",
"                0 7 g G L U ^ u.k.~ m./././././.# X % % % % % & % % % % % , , o $././.(./.(.0.p./.h.1.<X;XZ.| D M               ",
"                0 7 g G G U ^ f.f.~ m././././.5.  % & % % % % % % % % % % & , % 4 /././././.0.w./.h.1.2X;XZ.} D M               ",
"                0 7 t G G U ^ f.z.~ k.l.x.x.x.c o X % % % % % % % & % % % % > > * x.x.x.v.m.<.w.(.h.1.2X;XZ.| D M               ",
"                0 7 g G G U ~ f.k.~ 7.7.7.7.7.6 o X % % % & % % % % % % % % % > @ [ 7.7.7.7.^ 8./.h.1.<X;XZ.| D M               ",
"                0 7 g G G U ^ f.x.7.7.7.7.7.) 9 o X % % % % % % % % % % % % % > @ / 7.) 7.7.7.z./.h.1.<X;XZ.} D M               ",
"                0 8 t G G I / f.~.!.m.~.!.!.K.b   X % % % % % % % & % % % & % % = x.x.m.x.z.m.~./.h.1.2X;XZ.} F N               ",
"                0 8 h G G ` ^ f./././.(.E.'.'.N.  X X % % % % % % % % % % % % X 2 ~ ~ ~ ~ ~ ~ d./.h.1.2X;XZ.} F M               ",
"                0 7 t G G U ^ u.^././.S.+X&X*X&X> X X X % % % % % % % % % % X o N.~.E././.E.<.8./.h.1.1X*XZ. .D M               ",
"                0 7 t G G U ^ f././.$X=X2X5X5X5X=XX X X X % % % % % % & % % o 4 (.`._..X`.[.0.8./.z.1.;X=XZ.} D M               ",
"                0 8 t G G U / f./.'.&X2X4X3X3X3X4XC   X X % % % % & % % % X * j././././././.0.w./.h.{ OXOXZ.} F M               ",
"                0 8 t G G U ~ f.~.#X,X3X3X3X3X3X4X3XZ X X % % % % % % O   ; b.~././.(./././.0.w./.h.Q ;.;.b } D M               ",
"                0 8 D G G U ^ f.I.OX,X3X3X3X3X3X4X3X3X, X % % % % % % X @ 6.~./././././././.0.w.(.z.W G F G } F M               ",
"                0 8 t G G I ^ f.H.OX,X3X3X3X3X3X3X3X,X% % % & % % % % % o 4.^././././././.(.0.p./.h.! H G G } F M               ",
"                0 7 t G L U ^ f.J.OX:X1X3X3X3X3X3X3X@XX % % % % % % % & % z /././././././.(.0.8.^.h.W G G G | G M               ",
"                0 8 t G G U ^ l.v.#X*X:X<X3X3X3X3X3X1 X % % % % % & % > & . U././././././.(.0.9./.h.! G G G L D M               ",
"                0 8 t G G U / f.!.G.OX:X:X,X3X3X2X,Xo X % % % % % % % & , X 4././././././.(.0.w./.h.W G G G | D M               ",
"                0 8 t G L P ~ f.^.v.D.OX*X;X:X:X;XC o % % % % & & % % % , X i /.(./././././.0.p.(.z.W G G G | D M               ",
"                0 7 t G G U ^ f.(.^.v.M.#X+X+X+X#X< X % & % % % % % % % > > O r.z.k.l.l.k.l.) w./.h.W H G G | D M               ",
"                0 8 D G G U ^ f.^./.^.!.c.F.G.G.F.O % % % % % % % % % % & , o J ) ,.) ) ) ) ( w./.h.W G G G | D M               ",
"                0 8 t G G P ^ f./././.^.^.^.^.^.$.o % % % % % % % % & % % > % 2 9.9.9.9.e.e.9.L./.h.[ B.C.:.| D M               ",
"                0 8 t G G U ) f.^.~.~.~.~.~.~.^.3 X % % % % % % % % % % % > > . v.m.v.L.L.v.v.^./.h.{ -X&XZ.} D M               ",
"                0 7 g G G U ! f.m.,.~ ,.~ ,.,.~ o % % % % % % % % % % % % % , X l ,.,.,.,.,.,.p./.h.3.4X;XZ.| D M               ",
"                0 7 g G G U ^ u.k.~ K.).(.E.`.M o X % X % % X % % X % % % % & X ; W.T.).T.W.,.p./.z.1.2X;XZ.| D M               ",
"                0 7 g G G ` ^ f.g.~ ~.`.`.`.`.3 o X X X X X X X X X X X X X % % # Y.`.`._._.0.9./.h.1.<X;XZ.| D M               ",
"                0 7 g G G P ^ l.z.~ m././././.;   o   o     o         o     o o + 5.^./.^.(.0.9./.z.1.2X-XZ.| D M               ",
"                0 8 t G G U ~ f.k.~ m././././.%...X.X.X.X.p J X.X.H 9 s X.X.X.+.%.K./././.(.0.w./.h.1.<X;XZ.| D M               ",
"                0 8 t L G P ^ f.k.~ m./././.(.~.m.~.m.~.m.! s.L.P.k.R a.P.P.m.m.m.(././././.0.9./.h.1.<X-XZ.X.F M               ",
"                0 8 t L G U ^ f.f.~ !./././././././././.^.,.z././.m.^ k./.(././././.(./././.0.p./.z.1.<X;XZ.} D M               ",
"                0 8 t G G U ^ f.f.~ m./././././././././.U.,.z././.m.^ d././././././././././.0.9./.h.1.<X;XZ.X.J M               ",
"                0 7 t G G U ^ f.f.~ m./././././././.^./.^.,.z././.m.^ z././././././././././.0.9.^.h.{ <X;XA.| D M               ",
"                0 7 h G G U / u.g.~ m.(./././.^././././.~.,.z././.m.^ g./././././././././.(.0.w.(.z.{ :X=XZ.| D M               ",
"                0 7 t G G U ^ f.k.~ v.^.^.^.^./.^.^.^.^.P.<.z././.m.^ g.^.^.^.^.^.^.^.^.^./.7.9.(.c.{ =X&XZ.| D M               ",
"                0 7 h G G I ^ f.f.~ g.l.l.l.x.x.x.l.l.x.k.) z./.(.m.^ y.l.x.k.x.l.l.x.x.l.l.7.9.^.h.' V.V.>.} D M               ",
"                0 7 8 t t S / f.k.~ ^ ^ ^ ^ ) ^ ^ ^ ) ) ^ ~ x././.v.^ ~ ) ) ^ ) ) ^ ) ) ) ^ ~ 9.(.z.Y w e w j D M               ",
"                0 7 7 7 8 A ^ y.-.] E / E ] ] E E E E E ] ] y.f.f.t.] / E E E E E E E ] / E / y.f.e.Y 7 7 7 w q M               ",
"                0 7 7 7 8 A ^ t.t.-.t.-.t.t.t.t.-.9.q.q.-.t.y.y.y.y.q.y.t.-.q.q.9.t.q.q.q.q.t.y.u.9.R 7 7 7 w a M               ",
"                0 0 0 0 0 S ~ ~ ~ ~ ~ ~ ~ ~ ~ ~ ~ ~ ~ ~ ~ ~ ~ ~ ~ ~ ! ~ ~ ~ ~ ~ ~ ~ ~ ~ ~ ~ ~ ~ ~ ! Y 0 0 0 0 0 M               "
};
