/* XPM */
static char *result[] = {
/* columns rows colors chars-per-pixel */
"64 64 6 1 ",
"  c #000001",
". c black",
"X c white",
"o c red",
"O c #2D00FF",
"+ c #009BFF",
/* pixels */
"                                                                ",
"                                                                ",
"                                                                ",
"                                                                ",
"                                                                ",
"                                                                ",
"                                                                ",
"                                                                ",
"                                                                ",
"                                                                ",
"              ...................                               ",
"              .........................                         ",
"             .............................                      ",
"             ..............................                     ",
"             ...XXX.....XXXXXXXXXX...........                   ",
"             ...XXX.....XXXXXXXXXX............                  ",
"             ...XXXXXXXXXXXXXXXXXXXXXXXXX......                 ",
"              ..XXXXXXXXXXXXXXXXXXXXXXXXX......                 ",
"              ..XXXXXXXXXXXXXXXXXXXXXXXXX.......                ",
"              .....XXXXXXXXXXXXXXXXXXXXXXXXX....                ",
"              .....XXXXXXXXXXXXXXXXXXXXXXXXX.....               ",
"              .......XXXXXXXXXXXXXXXXXXXXXXX.....               ",
"              .......XXXXXXXXXXXXXXXXXXXXXXX......              ",
"               ....XXXXXXXXXXXXXXX.......XXXXX....              ",
"               ....XXXXXXXXXXXXXXX.......XXXXX.....             ",
"               ....XXXXXXXXXXXX...oo...oo...XX.....             ",
"               ....XXXXXXXXXXXX...oo...oo...XX......            ",
"               ......XXXXXXXX..oooXXoooXXoooXX......            ",
"               ......XXXXXXXX..oooXXoooXXoooXX.......           ",
"              .......XXXXXXXX..oooooooooooooXX.......           ",
"              .......XXXXXXXX..oooooooooooooXX........          ",
"              .....XXOOOOOXXXXXXXXoo...oo.............          ",
"             ......XXOOOOOXXXXXXXXoo...oo..............         ",
"             ......XXOOOOOXXXXXXXXoo...oo..............         ",
"             ...XXXXXXXXXXXXXXXXXXXXXXXXXOOOXXXXX......         ",
"            ....XXXXXXXXXXXXXXXXXXXXXXXXXOOOXXXXX......         ",
"            ....XXXXXXXXXXXXXXXXXXXXXXXOOXXXXXXXXXX....         ",
"           .....XXXXXXXXXXXXXXXXXXXXXXXOOXXXXXXXXXX...          ",
"           ...XXXXXXXXXXXXXXXXXXXXXXOOOXXXXXXX........          ",
"          ....XXXXXXXXXXXXXXXXXXXXXXOOOXXXXXXX........          ",
"          ....XXXXXXXXXXXXXXXXXXXXOOXXXXXXXX.........           ",
"          ....XXXXXXXXXXXXXXXXXXXXOOXXXXXXXX.........           ",
"         ..XXXXXXXXXXXXXXXXXXXXXXXXXXXXXX++++++++...            ",
"         ..XXXXXXXXXXXXXXXXXXXXXXXXXXXXXX++++++++...            ",
"         ..XXX.....XXXXX+++++++XXXXXXXX+++++++.....             ",
"          .XXX.....XXXXX+++++++XXXXXXXX+++++++.....             ",
"          ...........+++++++++++++XXooo+++++......              ",
"           ..........+++++++++++++XXooo+++++.....               ",
"            .........+++++++++++++XXooo+++++.....               ",
"              ..................................                ",
"                  ...........................                   ",
"                                    ....                        ",
"                                                                ",
"                                                                ",
"                                                                ",
"                                                                ",
"                                                                ",
"                                                                ",
"                                                                ",
"                                                                ",
"                                                                ",
"                                                                ",
"                                                                ",
"                                                                "
};
