/* XPM */
static char *result[] = {
/* columns rows colors chars-per-pixel */
"64 64 62 1 ",
"  c black",
". c #AAAA00",
"X c #393900",
"o c yellow",
"O c #555500",
"+ c #1C1C00",
"@ c #8E8E00",
"# c #005500",
"$ c green",
"% c #AAFF00",
"& c #007100",
"* c #00AA00",
"= c #00C600",
"- c #39FF00",
"; c #55FF00",
": c #8EFF00",
"> c #008E00",
", c #00E300",
"< c #1CC61C",
"1 c #55FF55",
"2 c #555555",
"3 c white",
"4 c #C6C600",
"5 c #717100",
"6 c #AAFFAA",
"7 c #FFFF55",
"8 c #395500",
"9 c #718E00",
"0 c #E3FFE3",
"q c #E3FF39",
"w c #55CC22",
"e c #FFCC22",
"r c #C6B50B",
"t c #FF6767",
"y c #552222",
"u c #AAAAAA",
"i c #AA4545",
"p c #398E39",
"a c #71C671",
"s c #39A517",
"d c #8EAB39",
"f c #AA9A45",
"g c gray89",
"h c #39FF39",
"j c #8EB50B",
"k c #FFEEEE",
"l c #FFCCCC",
"z c #55EE44",
"x c #71FF00",
"c c #8EC600",
"v c #FFAAD0",
"b c #070607",
"n c #55E155",
"m c #FFA6D2",
"M c #FF4576",
"N c #FFADD1",
"B c #FFE1FF",
"V c #FFC0DD",
"C c #FF7C9A",
"Z c #8E8848",
"A c #55AA31",
"S c #8ECE8E",
/* pixels */
"                                                                ",
"                                                                ",
"                                                                ",
"                                                                ",
"                                                                ",
"                          ...X                                  ",
"                          oooO                                  ",
"                      +OOOooo@OOO+                              ",
"                      OooooooooooO                              ",
"                      OooooooooooO                              ",
"                      OooooooooooO                              ",
"               #$$$$$$$$$$$$$$$$$%oooooooooooooO                ",
"               #$$$$$$$$$$$$$$$$$%oooooooooooooO                ",
"               #$$$$$$$$$$$$$$$$$%oooooooooooooO                ",
"            &**=$$$$$$$$$$$$$$$$$-;;:oooooooOOO+                ",
"            *$$$$$$$$$$$$$$$$$$$$$$$;ooooooo                    ",
"            *$$$$$$$$$$$$$$$$$$$$$$$;ooooooo                    ",
"         ###>**=$$$,**<111$$$$$$$$$$-%%%....                    ",
"         $$$#  #$$$*  2333$$$$$$$$$$$$$$                        ",
"         $$$#  #$$$*  2333$$$$$$$$$$$$$$                        ",
"         $$$#  #$$$*  2333$$$$$$$$$$$$$$                        ",
"         3332  #$$$*  23333331$$$$$$$$$$oooooooooo.             ",
"         3332  #$$$*  23333331$$$$$$$$$$oooooooooo.             ",
"         3332  #$$$*  23333331$$$$$$$$$$%%%%ooo4..5             ",
"         3332  #$$$*  23333331$$$$$$$$$$$$$$oooO                ",
"         3332  #$$$*  23333331$$$$$$$$$$$$$$oooO                ",
"         3332  #$$$*  23333331$$$$$$$$$$$$$$oooO                ",
"     #$$$3333336$$$13333333337oooooo%$$$$$$$                    ",
"     #$$$3333336$$$13333333337oooooo%$$$$$$$                    ",
"     #$$$3333336$$$13333333337oooooo%$$$$$$$                    ",
"     8%%%3333336$$$13333333337ooo@OO9%%%$$$$......5             ",
"     Oooo3333336$$$13333333337oooO  Oooo$$$$oooooo.             ",
"     Oooo3333336$$$13333333337oooO  Oooo$$$$oooooo.             ",
"     8%%%6660336$$$1333333666qoooO  8%%%wwwweeer..5             ",
"     #$$$$$$6336$$$1333333$$$%oooO  #$$$ttttttty                ",
"     #$$$$$$6336$$$1333333$$$%oooO  #$$$ttttttty                ",
"     #$$$$$$6336$$$1333333$$$%oooO  #$$$ttttttty                ",
"               2333u             *$$wttttttttttttti             ",
"               2333u             *$$wttttttttttttti             ",
"         ######p666a#############swwdttttttttttttti             ",
"         $$$$$$$$$$$$$$$$$$$$$$$$ftttttttttttttttti             ",
"         $$$$$$$$$$$$$$$$$$$$$$$$ftttttttttttttttti             ",
"         $$$$$$$$$$$$$$$$$$$$$$$$ftttttttttttttttti             ",
"            u3333333333333$$$$$$$$$$$$$$ttttttty                ",
"            u3333333333333$$$$$$$$$$$$$$ttttttty                ",
"            u3333333333333$$$$$$$$$$$$$$ttttttty                ",
"         uuug3333333333333666h$$$$$$$$$$wwwwwwwj..5             ",
"         333333333333333333331$$$$$$$$$$$$$$$$$%oo.             ",
"         333333333333333333331$$$$$$$$$$$$$$$$$%oo.             ",
"         3333333333klllllllllz$$$$$$$$$$$$$$$$$x%%cOOO          ",
"         3333333333ltttttttttw$$$$$$$$$$$$$$$$$$$$;ooo          ",
"         3333333333ltttttttttw$$$$$$$$$$$$$$$$$$$$;ooo          ",
"         3333333333ltttttttttw$$$$$$$$$$$$$$$$$$$$;ooo          ",
"     vttttttl33ltttttttttttttttttw$$$$$$$$$$  bn$$$$$$$$$$      ",
"     vttttttl33ltttttttttttttttttw$$$$$$$$$$   n$$$$$$$$$$      ",
"     mMMMMMMNBBVCCCCCCCCCCMMMMMMMZAAAAAAnnnn   SnnnnnnAAAA      ",
"                                                                ",
"                                                                ",
"                                                                ",
"                                                                ",
"                                                                ",
"                                                                ",
"                                                                ",
"                                                                "
};
