/* XPM */
static char *result[] = {
/* columns rows colors chars-per-pixel */
"192 71 44 1 ",
"  c #000000",
". c #0C0303",
"X c #150506",
"o c #180607",
"O c #1D0708",
"+ c #200709",
"@ c #24090B",
"# c #2D0B0D",
"$ c #320C0F",
"% c #360D10",
"& c #3A0E11",
"* c #400F13",
"= c #451114",
"- c #4B1216",
"; c #541419",
": c #5C161B",
"> c #60171C",
", c #61181C",
"< c #68191F",
"1 c #6D1A20",
"2 c #741C22",
"3 c #7C1E25",
"4 c #801F26",
"5 c #832027",
"6 c #872128",
"7 c #892128",
"8 c #93242B",
"9 c #9A262E",
"0 c #A0272F",
"q c #A12730",
"w c #A62931",
"e c #AE2A34",
"r c #B42C35",
"t c #B92E37",
"y c #BC2E38",
"u c #C12F39",
"i c #C6313B",
"p c #CB323C",
"a c #D2343F",
"s c #D63540",
"d c #DB3641",
"f c #E13743",
"g c #E73945",
"h c None",
/* pixels */
"hhhhhhhhhhhhhhhhhhhhhhhhhhhhhhhhhhhhhhhhhhhhhhhhhhhhhhhhhhhhhhhhhhhhhhhhhhhhhhhhhhhhhhhhhhhhhhhhhhhhhhhhhhhhhhhhhhhhhhhhhhhhhhhhhhhhhhhhhhhhhhhhhhhhhhhhhhhhhhhhhhhhhhhhhhhhh &weewwwwwew, hhhhh",
"hhhhhhhhhhhhhhhhhhhhhhhhhhhhhhhhhhhhhhhhhhhhhhhhhhhhhhhhhhhhhhhhhhhhhhhhhhhhhhhhhhhhhhhhhhhhhhhhhhhhhhhhhhhhhhhhhhhhhhhhhhhhhhhhhhhhhhhhhhhhhhhhhhhhhhhhhhhhhhhhhhhhhhhhhhhhh ;gggggggggg5 hhhhh",
"hhhhhhhhhhhhhhhhhhhhhhhhhhhhhhhhhhhhhhhhhhhhhhhhhhhhhhhhhhhhhhhhhhhhhhhhhhhhhhhhhhhhhhhhhhhhhhhhhhhhhhhhhhhhhhhhhhhhhhhhhhhhhhhhhhhhhhhhhhhhhhhhhhhhhhhhhhhhhhhhhhhhhhhhhhhhh ;gggggggggg6 hhhhh",
"hhhhhhhhhhhhhhhhhhhhhhhhhhhhhhhhhhhhhhhhhhhhhhhhhhhhhhhhhhhhhhhhhhhhhhhhhhhhhhhhhhhhhhhhhhhhhhhhhhhhhhhhhhhhhhhhhhhhhhhhhhhhhhhhhhhhhhhhhhhhhhhhhhhhhhhhhhhhhhhhhhhhhhhhhhhhh ;gggggggggg7 hhhhh",
"hhhhhhhhhhhhhhhhhhhhhhhhhhhhhhhhhhhhhhhhhhhhhhhhhhhhhhhhhhhhhhhhhhhhhhhhhhhhhhhhhhhhhhhhhhhhhhhhhhhhhhhhhhhhhhhhhhhhhhhhhhhhhhhhhhhhhhhhhhhhhhhhhhhhhhhhhhhhhhhhhhhhhhhhhhhhh ;gggggggggg7 hhhhh",
"hhhhhhhhhhhhhhhhhhhhhhhhhhhhhhhhhhhhhhhhhhhhhhhhhhhhhhhhhhhhhhhhhhhhhhhhhhhhhhhhhhhhhhhhhhhhhhhhhhhhhhhhhhhhhhhhhhhhhhhhhhhhhhhhhhhhhhhhhhhhhhhhhhhhhhhhhhhhhhhhhhhhhhhhhhhhh ;gggggggggg7 hhhhh",
"hhhhhhhhhhhhhhhhhhhhhhhhhhhhhhhhhhhhhhhhhhhhhhhhhhhhhhhhhhhhhhhhhhhhhhhhhhhhhhhhhhhhhhhhhhhhhhhhhhhhhhhhhhhhhhhhhhhhhhhhhhhhhhhhhhhhhhhhhhhhhhhhhhhhhhhhhhhhhhhhhhhhhhhhhhhhh ;gggggggggg7 hhhhh",
"hhhhhh              hh              hh              h                      hhhhh                      hhhh             hhhhhhhhhhhhhhhh                       hhhh            ;gggggggggg7 hhhhh",
"hhhhhh.-,,,,,,,:,,X hh #,:,,,,,,,:# hh X,,,,:,,,,:#   o=::,,,,:,,,:,,,>;-X  hhh  o-:::,,>>>>>,,:,::=o  hhh &,,,,,>>>>>X hhhhhhhhhhhhhh  .$;:,,,,,,,,,:,,,:;#   hh  .=;::,:,,,,8gggggggggg7 hhhhh",
"hhhhhh.wgggggggggg- hh 3gggggggggg3 hh =gggggggggg& .9fggggggggggggggggggf9X   o9gggggggggggggggggggd6.    9gggggggggg#                ;agggggggggggggggggggt-   .1aggggggggggggggggggggg7 hhhhh",
"hhhhhh 8gggggggggg2 hh 9gggggggggg9  h :ggggggggggO 5gggggggggggggggggggggg5   8gggggggggggggggggggggg: o%%egggggggggg;$%%%%%%%%%%$#  @agggggggggggggggggggggao  -fgggggggggggggggggggggg6 hhhhh",
"hhhhhh ,ggggggggggq hh eggggggggggy. h 2gggggggggd.Xfggggggggggggggggggggggpo @dggggggggggggggggggggggy.:fggggggggggggggggfggfgggfgr  2ggggggggggggggggggggggg:  wggggggggggggggggggggggg7 hhhhh",
"hhhhhh $ggggggggggp h .igggggggggga#   9gggggggggi &gggggggggggggggggggggggg# &gggggggggggggggggggggggp@,ggggggggggggggggggggggggggr .9ggggggggggggggggggggggg3  iggggggggggggggggggggggg7 hhhhh",
"hhhhhh @dgggggggggd.  @dggggggggggd=   tggggggggg9 =gggggggggggggggggggggggg# &gggggggggggggggggggggggp@:ggggggggggggggggggggggggggr .9ggggggggggggggggggggggg5  pggggggggggggggggggggggg7 hhhhh",
"hhhhhh Xpggggggggggo  &gggggggggggf:  Xpggggggggg, =gggggggggggggggggggggggg$ &gggggggggggggggggggggggp@,ggggggggggggggggggggggggggr .qggggggggggggggggggggggg5  pggggggggggggggggggggggg6 hhhhh",
"hhhhhh  tgggggggggg&  ;gggggggggggg3  @dggggggggg$ -gggggggggggggggggggggggg# &gggggggggggggggggggggggp@:ggggggggggggggggggggggggggt .9ggggggggggggggggggggggg5  pggggggggggggggggggggggg7 hhhhh",
"hhhhhh  9gggggggggg>  <ggggggggggggw  #fgggggggggX =ggggggggggsytdgggggggggg$ =fgggggggggdttdgggggggggp@:ggggggggggggggggggggggggggr .qggggggggggytpgggggggggg5  pgggggggggfytigggggggggg7 hhhhh",
"hhhhhhh 1gggggggggg5  6ggggggggggggy  -gggggggggp  -gggggggggg6  9gggggggggg# &fggggggggg9  rgggggggggp@,ggggggggggggggggggggggggggr .9gggggggggd. =gggggggggg5  pgggggggggpo ;gggggggggg6 hhhhh",
"hhhhhhh ;gggggggggg0  rggggggggggggpX 5ggggggggg9  &ippppipipp2  9gggggggggg# =gggggggggg9  8pippipipirO;pidggggggggggpppippipippii9..9gggggggggfX =gggggggggg5  pgggggggggso ;gggggggggg7 hhhhh",
"hhhhhhh $ggggggggggr  aggggggggggggd@.9ggggggggg3                qgggggggggg# &gggggggggg9                 9gggggggggg#              .qgggggggggd. =gggggggggg5  pgggggggggpo ;gggggggggg7 hhhhh",
"hhhhhhh .ggggggggggi..fggggggggggggf#Xrggggggggg: h     XXXooooooegggggggggg$ &ggggggggggwoooooXoXX        9gggggggggg#  ooooooooooX .qgggggggggf. =gggggggggg5  pgggggggggaX ;gggggggggg7 hhhhh",
"hhhhhhh  pgggggggggd@@gggggggggggggg;@pggggggggg* h  #wdgggggggggggggggggggg# &gggggggggggggggggggga9#  h  9gggggggggg# oggggggggggr .qgggggggggf318gggggggggg5  agggggggggpX ;gggggggggg7 hhhhh",
"hhhhhhhh egggggggggg&&gggggggggggggg2%gggggggggd@ h =dgggggggggggggggggggggg# =fggggggggggggggggggggga$ h  9gggggggggg# oggggggggggr .9ggggggggggggggggggggggg5  pgggggggggso ;gggggggggg7 hhhhh",
"hhhhhhhh 6gggggggggg:1gggggggggggggg9:gggggggggi.  .aggggggggggggggggggggggg# &ggggggggggggggggggggggge    9gggggggggg# oggggggggggt .qggggggggggggggggggggggg5  pgggggggggpo -gggggggggg6 hhhhh",
"hhhhhhhh ,gggggggggg19gggggggggggggge5gggggggggr   $gggggggggggggggggggggggg$ &fggggggggggggggggggggggp+   9gggggggggg# oggggggggggr .qggggggggggggggggggggggg5  sgggggggggso ;gggggggggg6 hhhhh",
"hhhhhhhh ogggggggggg7uggggggpfggggggi9ggggggggg9 h =gggggggggggggggggggggggg# &gggggggggggggggggggggggp@   9gggggggggg# oggggggggggr .qggggggggggggggggggggggg5  pgggggggggpo ;gggggggggg6 hhhhh",
"hhhhhhhh  pgggggggggudgggggg9pggggggfyggggggggg2 h =gggggggggggggggggggggggg# Oaggggggggggggggggggggggp@   9gggggggggg# ogggggggggfr .qggggggggggggggggggggggg5  pgggggggggso ;gggggggggg7 hhhhh",
"hhhhhhhh  rggggggggggggggggg1rggggggggggggggggg- h -gggggggggggggggggggggggg#  6ggggggggggggggggggggggp@   9gggggggggg# oggggggggggr .qggggggggggggggggggggggg5  pgggggggggpo ;gggggggggg7 hhhhh",
"hhhhhhhhh 9ggggggggggggggggg=9fgggggggggggggggg@ h =gggggggggg9&$rgggggggggg$  .<idgggggggggggggggggggp#   9gggggggggg# oggggggggggr .qggggggggggggggggggggggg5  pgggggggggsX ;fggggggggg6 hhhhh",
"hhhhhhhhh 2ggggggggggggggggg.:ggggggggggggggggf. h -gggggggggg6  9gggggggggg#    .@#%%%%%%%%ygggggggggp@   9gggggggggg# oggggggggggr .qgggggggggd=%%%%%%%%%%%%O  pggggggggdso ;gggggggggg7 hhhhh",
"hhhhhhhhh =ggggggggggggggggd #fgggggggggggggggp hh =gggggggggg6  qgggggggggg#               egggggggggp@   9gggggggggg# oggggggggggr..qgggggggggf.               sfggggggggpo ;gggggggggg7 hhhhh",
"hhhhhhhhh #fgggggggggggggggt Xaggggggggggggggg5 hh -gggggggggg6  9gggggggggg# #99999999991  egggggggggp@   9gggggggggg# oggggggggggr .qgggggggggdX #9999999999:  pgggggggggso ;gggggggggg7 hhhhh",
"hhhhhhhhh oaggggggggggggggg9 .yggggggggggggggg- hh -gggggggggg5  qgggggggggg# &gggggggggg9  egggggggggp@   9gggggggggg# Xggggggggggr .0gggggggggf. =gggggggggg5  pgggggggggaX ;gggggggggg6 hhhhh",
"hhhhhhhhh .iggggggggggggggg2  rggggggggggggggg$ hh =ggggggggggy33igggggggggg$ *ggggggggggi33pgggggggggs@   9gggggggggg835ggggggggggr .0gggggggggg539gggggggggg5  pgggggggggf53qgggggggggg6 hhhhh",
"hhhhhhhhh  qggggggggggggggg=  4gggggggggggggggX hh =gggggggggggggggggggggggg# &gggggggggggggggggggggggi@   9gggggggggggggggggggggggr .0ggggggggggggggggggggggg5  pggggggggggggggggggggggg7 hhhhh",
"hhhhhhhhhh 3ggggggggggggggd#  ;ggggggggggggggd  hh -gggggggggggggggggggggggg# &ggggggggggggggggggggggfs@   9gggggggggggggggggggggggr X0ggggggggggggggggggggggg5  pggggggggggggggggggggggg7 hhhhh",
"hhhhhhhhhh >ggggggggggggggpO  &gggggggggggggge  hh =gggggggggggggggggggggggg# &gggggggggggggggggggggggp@   9gggggggggggggggggggggggr .0ggggggggggggggggggggggg5  pggggggggggggggggggggggg7 hhhhh",
"hhhhhhhhhh =gggggggggggggg9   Ogggggggggggggg5 hhh =gggggggggggggggggggggggg$ &gggggggggggggggggggggggp@   9gggggggggggggggggggggggr .9ggggggggggggggggggggggg4  pggggggggggggggggggggggg7 hhhhh",
"hhhhhhhhhh ogggggggggggggg2 h  fggggggggggggg1 hhh @gggggggggggggggggggggggg# #fggggggggggggggggggggggio h 5gggggggggggggggggggggggw  5ggggggggggggggggggggggg,  rggggggggggggggggggggggg7 hhhhh",
"hhhhhhhhhh  dggggggggggggg; h  tggggggggggggg- hhh  rggggggggggggggggggggggg# .rgggggggggggggggggggggg7  h =ggggggggggggggggggggggd;  *ggggggggggggggggggggggg$  3ggggggggggggggggggggggg6 hhhhh",
"hhhhhhhhhhh rggggggggggggg& hh 6ggggggggggggf@ hhhh Xefggggggggggggggggggggg#  #rdggggggggggggggggggdq. hh  ,sfgggggggggggggggggga:    ,sgggggggggggggggggggp:   .6dggggggggggggggggggggg6 hhhhh",
"hhhhhhhhhhh 3tttttttttttteO hh :ttttttttttttwX hhhh   $,wttttttttttttttttttt@    $2ettttttttttttttw:@.  hhh  o=7rttttttttyttttr7=o  hh  o-8rttttttttttttte7&X  hh  @,9rttttttttttyttttttt1 hhhhh",
"hhhhhhhhhhh                 hh                hhhhhhh                         h                       hhhhhh                       hhhh                       hhhh                         hhhhh",
"hhhhhhhhhhhhhhhhhhhhhhhhhhhhhhhhhhhhhhhhhhhhhhhhhhhhhhhhhhhhhhhhhhhhhhhhhhhhhhhhhhhhhhhhhhhhhhhhhhhhhhhhhhhhhhhhhhhhhhhhhhhhhhhhhhhhhhhhhhhhhhhhhhhhhhhhhhhhhhhhhhhhhhhhhhhhhhhhhhhhhhhhhhhhhhhh",
"hhhhhhhhhhhhhhhhhhhhhhhhhhhhhhhhhhhhhhhhhhhhhhhhhhhhhhhhhhhhhhhhhhhhhhhhhhhhhhhhhhhhhhhhhhhhhhhhhhhhhhhhhhhhhhhhhhhhhhhhhhhhhhhhhhhhhhhhhhhhhhhhhhhhhhhhhhhhhhhhhhhhhhhhhhhhhhhhhhhhhhhhhhhhhhhh",
"hhhhhhhhhhhhhhhhhhhhhhhhhhhhhhhhhhhhhhhhhhhhhhhhhhhhhhhhhhhhhhhhhhhhhhhhhhhhhhhhhhhhhhhhhhhhhhhhhhhhhhhhhhhhhhhhhhhhhhhhhhhhhhhhhhhhhhhhhhhhhhhhhhhhhhhhhhhhhhhhhhhhhhhhhhhhhhhhhhhhhhhhhhhhhhhh",
"hhhhhhhhhhhhhhhhhhhhhhhhhhhhhhhhhhhhhhhhhhhhhhhhhhhhhhhhhhhhhhhhhhhhhhhhhhhhhhhhhhhhhhhhhhhhhhhhhhhhhhhhhhhhhhhhhhhhhhhhhhhhhhhhhhhhhhhhhhhhhhhhhhhhhhhhhhhhhhhhhhhhhhhhhhhhhhhhhhhhhhhhhhhhhhhh",
"hhhhhhhhhhhhhhhhhhhhhhhhhhhhhhhhhhhhhhhhhhhhhhhhhhhhhhhhhhhhhhhhhhhhhhhhhhhhhhhhhhhhhhhhhhhhhhhhhhhhhhhhhhhhhhhhhhhhhhhhhhhhhhhhhhhhhhhhhhhhhhhhhhhhhhhhhhhhhhhhhhhhhhhhhhhhhhhhhhhhhhhhhhhhhhhh",
"                                    h                          hhhhhh                       h             hhhhhh       hhhhhhh             hhhhhh                                 h       hhhhhh",
":222222222,X ;2222222222O O22222222;  ;222222211.  #222222222O  hhhh &22222222& .:22222222;   &22222222,.  hhhh  22222&        O222222222O  hhhh  O222222222O O22222O&22222 :2222= O22222       ",
"eggggggggggdXeggggggggggdO&gggggggge 5ggggggggggy -ggggggggggdo hhhh 2gggggggg2 ygggggggggg5 2ggggggggggp  hhh O2ggggge222222O-gggggggggggO hhhh &ggggggggggg&&ggggg&2ggggg rgggg6&8ggggg222222;",
"eggggggggggg&eggggggggggg;&gggggggge pgggggggggggO2ggggggggggg1 hhhh 2gggggggg2Ogggggggggggd eggggggggggg& hhh &ggggggggggggg&2ggggggggggg2 hhhh 2ggggggggggg2&ggggg&2ggggg rgggg62gggggggggggge",
"eggggggggggg&eggggggggggg2&gggggggge gggggggggggg&2ggggggggggg2 hhhh 2gggggggg2&gggggggggggg eggggggggggg& hhh &ggggggggggggg&2ggggggggggg2 hhhh 2ggggggggggg2&ggggg&2ggggg rgggg62gggggggggggge",
"eggggpeggggg&eggggdeggggg2&gggggeee5 gggggpyggggg&2ggggdeggggg2 hhhh 2gggggeee;&gggggypggggg eggggpyggggg& hhh &ggggggggggggg&2ggggdeggggg2 hhhh 2ggggdedgggg2&ggggg&2ggggg tgggg62gggggggggggge",
"egggg2 ggggg&egggge ggggg2&ggggg     ggggg2#eeeee#2gggge eeeee: hhhh 2ggggg    &ggggg&;eeeee egggg2&ggggg& hhh #egggggpeeeeee#2gggge ggggg2 hhhh 2gggge egggg2&ggggg&2ggggg rgggg6:ygggggeeeeee5",
"egggg2 ggggg&egggge ggggg2&ggggg&&&# ggggg7&&%&#  2ggggt%&&&&   hhhh 2ggggg&&&O&ggggg,&&&%O  egggg2&ggggg& hhhh  ggggg2.%&&&&.2gggge ggggg2 hhhh 2gggge egggg2&ggggg&2ggggg rgggg5 &ggggg O&&&%#",
"eggggggggggg&eggggggggggg:&gggggggge ggggggggggg0 2ggggggggggd. hhhh 2gggggggg2&ggggggggggg, egggg2O22222O hhhh  ggggg2&ggggg&2gggge ggggg2 hhhh 2ggggr egggg2&ggggg&2ggggg rgggg6 &ggggg 2gggge",
"eggggggggggg&egggggggggge.&gggggggge ggggggggggggO2ggggggggggg, hhhh 2gggggggg2#gggggggggggp egggg2        hhhh  ggggg2&ggggg&2gggge ggggg2 hhhh 2gggge egggg2&ggggg&2ggggg tgggg6 &ggggg 2gggge",
"eggggggggggg#eggggggggggg&&gggggggge 0ggggggggggg&,ggggggggggg2 hhhh 2gggggggg2 dggggggggggg egggg2&ggggg& hhhh  ggggg2&ggggg&2gggge ggggg2 hhhh 2gggge egggg2&ggggg&2ggggg rgggg6 &ggggg 2gggge",
"eggggpereee- eggggp2ggggg2&gggggeee5 .8eeeeyggggg& 2eeeeeggggg2 hhhh 2gggggeer; #9eeeepggggg egggg2&ggggg& hhhh  ggggg2&ggggg&2gggge ggggg2 hhhh 2gggge egggg2&ggggg&2ggggg tgggg5 &ggggg 2gggge",
"egggg2       egggge ggggg2&ggggg     &&&&&O&ggggg&O&&&&# ggggg2 hhhh 2ggggg    .&%&&&X2ggggg egggg2&ggggg& hhhh  ggggg2&ggggg&2gggge ggggg2 hhhh 2gggge egggg2&ggggg&2ggggg rgggg6 &ggggg 2gggge",
"egggg2       egggge ggggg2&ggggg     ggggg2&ggggg&2gggge ggggg2 hhhh 2ggggg    &ggggg&2ggggg egggg2&ggggg& hhhh  ggggg2&ggggg&2ggggr ggggg2 hhhh 2gggge rgggg2&ggggg&2ggggg rgggg6 &ggggg 2gggge",
"egggg2 hhhh  egggge ggggg2&gggggggge gggggggggggg&2ggggggggggg2 hhhh 2gggggggge&gggggggggggg eggggggggggg& hhhh  gggggggggggg&2ggggggggggg2 hhhh 2ggggggggggg2&gggggggggggg tgggg6 &ggggggggggge",
"egggg2 hhhh  egggge ggggg2&gggggggge gggggggggggg&2ggggggggggg2 hhhh 2gggggggge&gggggggggggg rggggggggggg& hhhh  gggggggggggg&2ggggggggggg2 hhhh 2ggggggggggg2&gggggggggggg rgggg6 &gggggggggggr",
"egggg2 hhhh  egggge ggggg2&gggggggge eggggggggggg.2ggggggggggg; hhhh 2ggggggggr gggggggggggy egggggggggggO hhhh  yggggggggggg 2ggggggggggg; hhhh ,ggggggggggg2.ggggggggggge rgggg6 #ggggggggggg9",
"egggg2 hhhh  egggge ggggg2&gggggggge #yggggggggp: X9ggggggggg8  hhhh 2gggggggge ;pggggggggp# #eggggggggd,  hhhh  #yggggggggp; X8ggggggggg8  hhhh X8gggggggggg2 :pggggggggy# rgggg6  2dgggggggge#",
"       hhhhh        ggggg2                                     hhhhh                                      hhhhhh                           hhhhhh       egggg2                     h            ",
"      hhhhhhh       ggggggggggggggge             hh           hhhhhhh          h            hh           hhhhhhhh            hh           hhhhhhhh      egggggggggggggggggg       hh           h",
"hhhhhhhhhhhhhhhhhh  ggggggggggggggge  hhhhhhhhhhhhhhhhhhhhhhhhhhhhhhhhhhhhhhhhhhhhhhhhhhhhhhhhhhhhhhhhhhhhhhhhhhhhhhhhhhhhhhhhhhhhhhhhhhhhhhhhhhhhhhhh  egggggggggggggggggg  hhhhhhhhhhhhhhhhhhh",
"hhhhhhhhhhhhhhhhhh  pgggggggggggggge  hhhhhhhhhhhhhhhhhhhhhhhhhhhhhhhhhhhhhhhhhhhhhhhhhhhhhhhhhhhhhhhhhhhhhhhhhhhhhhhhhhhhhhhhhhhhhhhhhhhhhhhhhhhhhhhh  egggggggggggggggggg  hhhhhhhhhhhhhhhhhhh",
"hhhhhhhhhhhhhhhhhh  :sggggggggggggge  hhhhhhhhhhhhhhhhhhhhhhhhhhhhhhhhhhhhhhhhhhhhhhhhhhhhhhhhhhhhhhhhhhhhhhhhhhhhhhhhhhhhhhhhhhhhhhhhhhhhhhhhhhhhhhhhh &pggggggggggggggggg  hhhhhhhhhhhhhhhhhhh"
};
