/* XPM */
static char *result[] = {
/* columns rows colors chars-per-pixel */
"64 64 245 2 ",
"   c #000001",
".  c #0C0001",
"X  c #000B00",
"o  c #02000B",
"O  c #0A000C",
"+  c #140307",
"@  c #001501",
"#  c #001A05",
"$  c #000015",
"%  c #080118",
"&  c #1B1210",
"*  c #270204",
"=  c #380605",
"-  c #37120D",
";  c #340A12",
":  c #3C1711",
">  c #280F14",
",  c #04270A",
"<  c #082D10",
"1  c #2A290F",
"2  c #342219",
"3  c #2A360E",
"4  c #000022",
"5  c #4A0709",
"6  c #4B120F",
"7  c #522F14",
"8  c #703228",
"9  c #50302B",
"0  c #035B12",
"q  c #084917",
"w  c #046307",
"e  c #006E1C",
"r  c #166617",
"t  c #02701D",
"y  c #236F06",
"u  c #09722C",
"i  c #2A5808",
"p  c #4E4516",
"a  c #4D4B12",
"s  c #547708",
"d  c #717513",
"f  c #514929",
"g  c #615131",
"h  c #6F772E",
"j  c #861A15",
"k  c #8C3610",
"l  c #A6351A",
"z  c #9C3F27",
"x  c #F13100",
"c  c #C72738",
"v  c #FF3D34",
"b  c #8E4617",
"n  c #8D4D13",
"m  c #B75A00",
"M  c #B05012",
"N  c #9F630C",
"B  c #B36600",
"V  c #BB7C00",
"C  c #AA7304",
"Z  c #91512E",
"A  c #AC4F24",
"S  c #B5672F",
"D  c #C64D00",
"F  c #D74D00",
"G  c #C95600",
"H  c #D55602",
"J  c #DB5801",
"K  c #E84900",
"L  c #F84700",
"P  c #E65202",
"I  c #E45900",
"U  c #EA5803",
"Y  c #FD5200",
"T  c #F75606",
"R  c #FF5717",
"E  c #F14F14",
"W  c #CB6600",
"Q  c #D46500",
"!  c #DA6401",
"~  c #D26F00",
"^  c #C87600",
"/  c #D87702",
"(  c #CE701F",
")  c #E16400",
"_  c #EB6A03",
"`  c #FD6200",
"'  c #FB6906",
"]  c #E77704",
"[  c #FA7905",
"{  c #E96618",
"}  c #FD6716",
"|  c #FC7A18",
" . c #EF731E",
".. c #FD5723",
"X. c #FF4130",
"o. c #F96629",
"O. c #E97527",
"+. c #FA762C",
"@. c #F76C39",
"#. c #F97937",
"$. c #D6612C",
"%. c #B37453",
"&. c #EF495F",
"*. c #D37D44",
"=. c #FF6E43",
"-. c #FF7947",
";. c #0B901A",
":. c #1EB11F",
">. c #21B71E",
",. c #15992B",
"<. c #19A420",
"1. c #2CB620",
"2. c #769118",
"3. c #48A61D",
"4. c #7BB608",
"5. c #7CAA01",
"6. c #58AC22",
"7. c #4BB223",
"8. c #25FC12",
"9. c #21EC2F",
"0. c #67C21E",
"q. c #59F504",
"w. c #76E314",
"e. c #57C226",
"r. c #54F726",
"t. c #69FA2C",
"y. c #15AD50",
"u. c #33F65A",
"i. c #4FF54B",
"p. c #4DF074",
"a. c #B7980A",
"s. c #88A802",
"d. c #97B10A",
"f. c #9BAA22",
"g. c #98A123",
"h. c #C78109",
"j. c #DD8404",
"k. c #CA9700",
"l. c #DB8E0E",
"z. c #FA8306",
"x. c #E89709",
"c. c #FB920A",
"v. c #EF8813",
"b. c #FA851A",
"n. c #E39615",
"m. c #FE9212",
"M. c #EE850D",
"N. c #C7B901",
"B. c #DBBB16",
"V. c #D2AF0F",
"C. c #EAA80C",
"Z. c #E7B815",
"A. c #F3BC18",
"S. c #F3AA10",
"D. c #E88623",
"F. c #FF8626",
"G. c #FF9529",
"H. c #F38433",
"J. c #F99735",
"K. c #F6B229",
"L. c #B3C004",
"P. c #96E809",
"I. c #9BFF06",
"U. c #9BFD1A",
"Y. c #A2EE09",
"T. c #A7F508",
"R. c #B5FA06",
"E. c #B9FF13",
"W. c #A0FE11",
"Q. c #A6C22B",
"!. c #93FF2E",
"~. c #B0FF20",
"^. c #DCCD02",
"/. c #F7D904",
"(. c #F9C618",
"). c #F9D61A",
"_. c #EBCB0C",
"`. c #C1FE04",
"'. c #CCFF06",
"]. c #DBFF06",
"[. c #D7FF08",
"{. c #CCFF17",
"}. c #C7FF17",
"|. c #D4FF16",
" X c #DDFF15",
".X c #E3FF04",
"XX c #ECFF04",
"oX c #ECFF0C",
"OX c #E3FF0B",
"+X c #F5FF04",
"@X c #FEFF03",
"#X c #F4FF0B",
"$X c #FEFF0C",
"%X c #FFF30A",
"&X c #FFEA1A",
"*X c #FCE718",
"=X c #ECFF15",
"-X c #E6FF17",
";X c #F4FF12",
":X c #FEFE14",
">X c #F3FF1C",
",X c #FEFF1B",
"<X c #FBF31B",
"1X c #E9C926",
"2X c #FBC928",
"3X c #FBDA28",
"4X c #F9D837",
"5X c #FEC93E",
"6X c #CFFC36",
"7X c #FFE726",
"8X c #EAFF29",
"9X c #FDF525",
"0X c #F6FF24",
"qX c #FEFF23",
"wX c #F3FE2C",
"eX c #FFFE2C",
"rX c #F9F428",
"tX c #FFEA33",
"yX c #E7FF39",
"uX c #FEFF33",
"iX c #FFFE3A",
"pX c #FCF739",
"aX c #EDE225",
"sX c #ADAF4C",
"dX c #DA835C",
"fX c #F4904B",
"gX c #FBB244",
"hX c #FF8C6B",
"jX c #B0D953",
"kX c #F8D44C",
"lX c #FEE34B",
"zX c #FFEE4D",
"xX c #FEFE44",
"cX c #FFFF4A",
"vX c #F9E657",
"bX c #FFFF53",
"nX c #FFFF5B",
"mX c #FFFF65",
"MX c #FFFC6D",
"NX c #FFFF7B",
"BX c #FFFF71",
"VX c #D7ED71",
"CX c #FFFF96",
"ZX c #FFFF8C",
"AX c #FFFFAD",
/* pixels */
"                                                                                                                                ",
"                                              o                                                                                 ",
"                                                                                                                                ",
"                                                                                                                                ",
"                                                                                                                                ",
"                                                                                                                                ",
"                                                                                                                                ",
"                                                                                                                                ",
"                                                                                                                                ",
"                                                                                                                                ",
"                                                                              f p 7 p 1     .                                   ",
"                                                                              NXcXxXmXsX    O .   o                             ",
"                                                                            . iX#X#XeXf.      .                                 ",
"                                                                        f ZXmXiXqX$XqXeXyXVX  .       O                         ",
"                                                                  $ $ o g CXbXcXiXqX:X$XqX6X  +                                 ",
"                                                                o $ 4 $ % g 7 n.l.&XqX:XoXwXQ.sX&                               ",
"                                                                o o O o       { I A.qX>XoX;XuXcX3                               ",
"                                                                    < w i f 8 ..L c.(.*X;XXX$XqXg.d 3                           ",
"                                                                    ,.r.E.mXvXL x Y ) C.qX:X$XbXMXbXf.                          ",
"                                                    .       @ X # , 4.I.I.0XeX] T Y P v.zXnX4XMXBXcX2.                          ",
"                                      .         o .       , i.q.OX@XwXyX0X,X,XiXbXl.J R v &.                                    ",
"                                                          , P.R.R.R. X,X:X+X.X=XxXS.' L X.c                                     ",
"                        X q y.y.,.;.;.<.:.>.1.7.7.6.6.7.7.0.6X}.6X{.=X$X@XXXoXeXpXc.P v.lXlXQ.jX,                               ",
"                      X # u u.!.U.U.E.E.E.E.}.{.{.|. X|.'.}.yXwXuX>X;X@X+XXX#XeXzXm.P x.eX>X=XbX3                               ",
"                      X @ t i.[.;X#X$X$X#X#X:X:X:X;X:X;X;X=XqXeX,X$X$X$X@XXX+XuXlX| K x.$X@X@XcX3                               ",
"                          r t.E.cXqX:X#XXX X-X;X,XqX0X>X-X-X>XeX#X#X$X:X+X@X,XxXlX+.I x.$X@X:XcX3                               ",
"                          q e.P.MXuX,X@X@X@X@X$X$X:X:X$X#X#X>XuX).(.*X:X@X@XeXkXgXD.] C.@X$X,XbX1                               ",
"                      O   X s $XMXcXqX$X@X@X@X$X$X$X$X$X$X+X+X*XU K S.qX@X@X*Xm H K.tX,X:X@XeXNX2                               ",
"                      O O     a AXZXMXcXuXqX,X:X,X9XrXrXeXqXeXtXK x S.,X$X$X7XD m 1XrX,X:X:XiXNX2                               ",
"                      O O       > ; + + n M.] j.j._ [ _ _ / j.m kX5X3X%X/./ / K.3XrX;X:XqX9X/ J.*                               ",
"                      O o     o         - ( W C B ! P K J H ! W 4XpXeX,X_.W G 7XeX,X#X:XqXtXU J.=                               ",
"                          < ,.e e w y s s.V.N.d.s.B.K.K.A.Z.A.A.7XuX(.C.C.C.B.rX0X;X;X,XqXpXU fX-                               ",
"                        . u i.r.t.U.E.OXXX[.[.T.T.8XiXuXqXqXxXxXuXtXj.G l.eXwXuXwX#X#X,XeXbX .fX;                               ",
"                          r !.XX@X@X@X@X#X+XoXXX+XwXeX,X#X;X4X4X3X2Xn./ Z.eXuXuX,X+X@X:XaXvXN %.&                               ",
"                          s iX$X:X:X$X@X$X>XwX:X#XqX,X$X:X).D I F H A.qXqX<XrX$X@X@X@X_.V N                                     ",
"                      o o h NXuXuXxX:X@XqXcXxX,X:X:X<X7X3X2XJ D D m B.eXpXeXiX$X$X%X&X2XG.fX                                    ",
"                            + - b.| c.x.j.j.] / ! ' ` Y I j.tX/.qXrXrXrXwXeXqXuXrXc.` Y R @..                                   ",
"                              . hXo.O.~ ^ ^ B h.m ! F J G h.uX,X#X;XeXuXiXqXqXuXtXc.} o.=.hX.                                   ",
"                      . .       9 : h 2.s.d.5.4.L.^.N.B.1X_.0X,X;X:XqXqX:X:X:XV.n.[ } $.8 8                                     ",
"                        O o       X 3.w.P.R.Y.Y.[..X].-X8X>X0XqXqX,X,X$X@X$X:X/ M.| H.Z                                         ",
"                              X 0 w P.].oXoXoXXX.XOXoX>X=X#X;XqX,X,X:X:X$X/.).] G.S Z 9                                         ",
"                              # u.8.`.@X+X].[.[.'.=X>XqX:X+X:X,X,XqX,XqX)./ z._ #.6   .     X                                   ",
"                              # p.9.q.R..XE.R.'.].wX7X&X<X:X,XrXeXuXiXbXkX[ F.O.dX6   o                                         ",
"                          o $ $     d k.k.k.V.a.C D.b._ ! _ ! G ~ W ) | | ' H..       o $ o                                     ",
"                          o o 4     S J.F.b.b.+.E o.#. .' | [ [ F.#.o.@.#.#.fX          o                                       ",
"                              $ o   > : - 5 j =...} ' U T ' ` `  .$.k 5 - - 2     o O                                           ",
"                                o           5 =.} F._ { o...R | +.dX2             .                                             ",
"                                            * Z k n b z Z l M A A Z 1                                                           ",
"          o                                             . * = = * + .                                                           ",
"                                                                                                                                ",
"                                                                                                                                ",
"                                                                                                                                ",
"                                                                                                                                ",
"                                                                                                                                ",
"                                                                                                                                ",
"                                                                                                                                ",
"                                                                                                                                ",
"                                                                                                              o                 ",
"                                                                                                                                ",
"                                                                                                                                ",
"                                                                                                                                ",
"                                                                                                                                ",
"                                                                                                                                ",
"                                                                                                                                "
};
