/* XPM */
static char *result[] = {
/* columns rows colors chars-per-pixel */
"64 64 181 2 ",
"   c black",
".  c #9B9B9B",
"X  c #F3F3F3",
"o  c gray40",
"O  c #888888",
"+  c #767676",
"@  c gray64",
"#  c white",
"$  c gray42",
"%  c gray56",
"&  c #7C7C7C",
"*  c #747474",
"=  c #101010",
"-  c gray59",
";  c #848484",
":  c gray4",
">  c #F8F8F8",
",  c #F4F4F4",
"<  c gray98",
"1  c #F9F9F9",
"2  c gray60",
"3  c gray63",
"4  c #ECECEC",
"5  c gray97",
"6  c gray66",
"7  c #131313",
"8  c #0B0B0B",
"9  c gray9",
"0  c #252525",
"q  c #A4A4A4",
"w  c #F1F1F1",
"e  c gray86",
"r  c #808080",
"t  c #959595",
"y  c #8D8D8D",
"u  c gray95",
"i  c #111111",
"p  c #1D1D1D",
"a  c gray67",
"s  c gray7",
"d  c #A7A7A7",
"f  c #F6F6F6",
"g  c #EEEEEE",
"h  c gray61",
"j  c gray47",
"k  c #CDCDCD",
"l  c #323232",
"z  c #7E7E7E",
"x  c #EAEAEA",
"c  c #838383",
"v  c #5F5F5F",
"b  c gray17",
"n  c #782B48",
"m  c #C12B63",
"M  c #6E1939",
"N  c #55132C",
"B  c #892B4E",
"V  c #771B3D",
"C  c #E73477",
"Z  c #841E44",
"A  c #661734",
"S  c #92214B",
"D  c #1E1E1E",
"F  c #343434",
"G  c #B4B4B4",
"H  c #9D9D9D",
"J  c #762F4A",
"K  c #B82A5F",
"L  c #DA82A3",
"P  c #FBD6E3",
"I  c #DE8BAA",
"U  c #D57599",
"Y  c #E296B2",
"T  c #D683A2",
"R  c #741A3C",
"E  c #F49DBD",
"W  c #F5A7C4",
"Q  c #F28DB3",
"!  c #F7B4CC",
"~  c #F189B0",
"^  c #EB518A",
"/  c #EE6C9C",
"(  c #EB548C",
")  c #EA4C87",
"_  c #EB578E",
"`  c #010101",
"'  c #020202",
"]  c #A0A0A0",
"[  c #FDFDFD",
"{  c #FEFEFE",
"}  c gray52",
"|  c #751C3D",
" . c #E73678",
".. c #E73578",
"X. c #E63477",
"o. c #E53476",
"O. c #EF88AE",
"+. c #6C6C6C",
"@. c gray73",
"#. c #717171",
"$. c #464646",
"%. c #AFAFAF",
"&. c #DDDDDD",
"*. c #D9C1CA",
"=. c #F9C8DA",
"-. c #F07CA7",
";. c #9F2452",
":. c #3F0E21",
">. c #891F47",
",. c #A92657",
"<. c #422530",
"1. c #2C2C2C",
"2. c gray57",
"3. c #F397BA",
"4. c gray1",
"5. c #040404",
"6. c #979797",
"7. c gray38",
"8. c #939393",
"9. c #F398BB",
"0. c #E73779",
"q. c #862147",
"w. c #681B38",
"e. c #92234C",
"r. c #686868",
"t. c #D8D8D8",
"y. c #C5C5C5",
"u. c #D7D7D7",
"i. c #FAD9E6",
"p. c #F6B5CE",
"a. c #D2ADBB",
"s. c #C7ABB6",
"d. c #9B7282",
"f. c #444444",
"g. c #B7B7B7",
"h. c #5B5B5B",
"j. c #CACACA",
"k. c gray88",
"l. c gray72",
"z. c gray84",
"x. c #C1C1C1",
"c. c gray44",
"v. c #B9B9B9",
"b. c #CBCBCB",
"n. c #515151",
"m. c #B6B6B6",
"M. c gray49",
"N. c #909090",
"B. c #C0C0C0",
"V. c #C3C3C3",
"C. c gray28",
"Z. c gray43",
"A. c #C6C6C6",
"S. c #A5A5A5",
"D. c #C7E0FD",
"F. c #9CC8FC",
"G. c #CFE4FE",
"H. c #DAEBFE",
"J. c #6B97CA",
"K. c #265286",
"L. c #183455",
"P. c gray34",
"I. c #97C5FB",
"U. c #4798F8",
"Y. c #A6CDFC",
"T. c #BBD9FD",
"R. c #2D619E",
"E. c #4B4B4B",
"W. c #94AAC5",
"Q. c #A3CCFC",
"!. c #6FAEFA",
"~. c #77B3FA",
"^. c #94ABC6",
"/. c #6B89AD",
"(. c #3A7CCB",
"). c #244C7C",
"_. c #183252",
"`. c #28558B",
"'. c #28578D",
"]. c #1A395C",
"[. c #2F65A4",
/* pixels */
"              . X X X o               O X X X X X X X X X X X X X X X +                                                         ",
"              @ # # # $               % # # # # # # # # # # # # # # # &                                                         ",
"              @ # # # $               % # # # # # # # # # # # # # # # &                                                         ",
"              @ # # # * = = = = = = = - # # # # # # # # # # # # # # # ; = = = = = = = = = = = :                                 ",
"              @ # # # > , , , , , , , < # # # # # # # # # # # # # # # 1 , , , , , , , , , , , 2                                 ",
"              @ # # # # # # # # # # # # # # # # # # # # # # # # # # # # # # # # # # # # # # # 3                                 ",
"              @ # # # # # # # # # # # # # # # # # # # # # # # # # # # # # # # # # # # # # # # 3                                 ",
"              - 4 4 4 5 # # # # # # # # # # # # # # # # # # # # # # # # # # # # # # # # # # # 6 7 7 7 8                         ",
"              9 0 0 0 q # # # # # # # # # # # # # # # # # # # # # # # # # # # # # # # # # # # w e e e r                         ",
"                      t # # # # # # # # # # # # # # # # # # # # # # # # # # # # # # # # # # # # # # # t                         ",
"                      t # # # # # # # # # # # # # # # # # # # # # # # # # # # # # # # # # # # # # # # t                         ",
"                      y u u u < # # # # # # # # # # # # # # # # # # # # # # # # # # # # # # # # # # # t                         ",
"                      i p p p a # # # # # # # # # # # # # # # # # # # # # # # # # # # # # # # # # # # t                         ",
"                              3 # # # # # # # # # # # # # # # # # # # # # # # # # # # # # # # # # # # t                         ",
"                              3 # # # # # # # # # # # # # # # # # # # # # # # # # # # # # # # # # # # t                         ",
"                      : s s s d # # # # # # # # # # # # # # # # # # # f g g g g g g g g g g g , # # # h s s s 8                 ",
"                      j k k k 4 # # # # # # # # # # # # # # # # # # # - l l l l l l l l l l l z # # # x k k k c                 ",
"                      t # # # # # # # # # # # # # # # # # # # # # # # &                       v # # # # # # # @                 ",
"                      t # # # # # # # # # # # # # # # # # # # # # # # &                       v # # # # # # # @                 ",
"                      t # # # # # # # # # # # # # # # # # # # # # # # &                       v # # # # # # # @                 ",
"                      t # # # # # # # # # # # # # # # # # # # t b b b n m m m M       N m m m B b b b c # # # @                 ",
"                      t # # # # # # # # # # # # # # # # # # # r       V C C C Z       A C C C S       $ # # # @                 ",
"                      t # # # # # # # # # # # # # # # # # # # r       V C C C Z       A C C C S       $ # # # @                 ",
"                      t # # # # # # # # # # # # # # # # # # # r       V C C C Z       A C C C S       $ # # # @                 ",
"                      D F F F G # # # # # # # # # # # H F F F J K K K L P P P I K K K U P P P Y K K K T # # # @                 ",
"                              3 # # # # # # # # # # # ;       R C C C E # # # W C C C Q # # # ! C C C ~ # # # @                 ",
"                              3 # # # # # # # # # # # ;       R C C C E # # # W C C C Q # # # ! C C C ~ # # # @                 ",
"                              3 # # # # # # # # # # # ;       R C C C E # # # W C C C Q # # # ! C C C ~ # # # @                 ",
"                              3 # # # # # # # # # # # ;       R C C C ^ / / / ( C C C ) / / / _ C C C ~ # # # @                 ",
"                              3 # # # # # # # # # # # ;       R C C C C C C C C C C C C C C C C C C C ~ # # # @                 ",
"                              3 # # # # # # # # # # # ;       R C C C C C C C C C C C C C C C C C C C ~ # # # @                 ",
"                      ` ' ' ' ] [ [ [ [ [ [ [ { # # # } ' ' ' |  . . ...C C C X.o.o.o.X.C C C X.o.o.o.O.[ [ [ 3                 ",
"                      +.@.@.@.#.$.$.$.$.$.$.$.%.# # # &.@.@.@.*.=.=.=.-.C C C ;.:.:.:.>.C C C ,.:.:.:.<.$.$.$.1.                ",
"                      t # # # v               2.# # # # # # # # # # # 3.C C C Z       A C C C S                                 ",
"                      t # # # v               2.# # # # # # # # # # # 3.C C C Z       A C C C S                                 ",
"              4.5.5.5.6.# # # 7.5.5.5.5.5.5.5.8.# # # # # # # # # # # 9.0.0.0.q.5.5.5.w.0.0.0.e.      ' 5.5.5.5.5.5.5.4.        ",
"              r.@ @ @ t.# # # y.@ @ @ @ @ @ @ u.# # # # # # # # # # # i.p.p.p.a.@ @ @ s.p.p.p.d.      f.@ @ @ @ @ @ @ $         ",
"              @ # # # # # # # # # # # # # # # # # # # # # # # # # # # # # # # # # # # # # # # 3       $ # # # # # # # 6         ",
"              @ # # # # # # # # # # # # # # # # # # # # # # # # # # # # # # # # # # # # # # # 3       $ # # # # # # # 6         ",
"              @ # # # # # # # # # # # # # # # # # # # # # # # # # # # # # # # # # # # # # # # 3       $ # # # # # # # 6         ",
"              @ # # # # # # # # # # # # # # # # # # # # # # # # # # # # # # # # # # # g.h.h.h.+ q q q j.# # # # # # # k.q q q + ",
"              @ # # # # # # # # # # # # # # # # # # # # # # # # # # # # # # # # # # # %       v # # # # # # # # # # # # # # # l.",
"              @ # # # # # # # # # # # # # # # # # # # # # # # # # # # # # # # # # # # %       v # # # # # # # # # # # # # # # l.",
"              @ # # # # # # # # # # # # # # # # # # # # # # # # # # # # # # # # # # # %       v # # # # # # # # # # # # # # # l.",
"      v % % % z.# # # # # # # # # # # # # # # # # # # # # # # # # # # # # # # x.c.c.c.z % % % v.# # # # # # # b.c.c.c.c.c.c.c.n.",
"      6 # # # # # # # # # # # # # # # # # # # # # # # # # # # # # # # # # # # 2.      c.# # # # # # # # # # # @                 ",
"      6 # # # # # # # # # # # # # # # # # # # # # # # # # # # # # # # # # # # 2.      c.# # # # # # # # # # # @                 ",
"      6 # # # # # # # # # # # # # # # # # # # # # # # # # # # # # # # # # # # 2.      c.# # # # # # # # # # # @                 ",
"      6 # # # # # # # # # # # # # # # # # # # # # # # # # # # # # # # m.c.c.c.M.N.N.N.B.# # # # # # # V.c.c.c.C.                ",
"      6 # # # # # # # # # # # # # # # # # # # # # # # # # # # # # # # &       Z.# # # # # # # # # # # t                         ",
"      6 # # # # # # # # # # # # # # # # # # # # # # # # # # # # # # # &       Z.# # # # # # # # # # # t                         ",
"      6 # # # # # # # # # # # # # # # # # # # # # # # # # # # # # # # &       Z.# # # # # # # # # # # t                         ",
". . . &.# # # # # # # # # # # # # # # # # # # # # # # # # # # # # # # b.. . . A.# # # # # # # # # # # t                         ",
"# # # # # # # # # # # # # # # # # # # # # # # # # # # # # # # # # # # # # # # # # # # # # # # # # # # t                         ",
"# # # # # # # # # # # # # # # # # # # # # # # # # # # # # # # # # # # # # # # # # # # # # # # # # # # t                         ",
"# # # # # # # # # # # # # # # # # # # # # # # # # # # # # # # # # # # # # # # # # # # # # # # # # # # t                         ",
"# # # S.+ + + + + + + A.# # # # # # # # # # # D.F.F.F.F.F.F.F.F.F.F.F.G.# # # # # # # # # # # H.F.F.F.J.K.K.K.L.                ",
"# # # P.              t # # # # # # # # # # # I.U.U.U.U.U.U.U.U.U.U.U.Y.# # # # # # # # # # # T.U.U.U.U.U.U.U.R.                ",
"# # # P.              t # # # # # # # # # # # I.U.U.U.U.U.U.U.U.U.U.U.Y.# # # # # # # # # # # T.U.U.U.U.U.U.U.R.                ",
"# # # P.              t # # # # # # # # # # # I.U.U.U.U.U.U.U.U.U.U.U.Y.# # # # # # # # # # # T.U.U.U.U.U.U.U.R.                ",
"r r r 1.              E.r r r r r r r W.Q.Q.Q.!.U.U.U.U.U.U.U.U.U.U.U.~.Q.Q.Q.^.r r r r r r r /.U.U.U.U.U.U.U.(.).).)._.        ",
"                                      `.U.U.U.U.U.U.U.U.U.U.U.U.U.U.U.U.U.U.U.'.              ].U.U.U.U.U.U.U.U.U.U.U.[.        ",
"                                      `.U.U.U.U.U.U.U.U.U.U.U.U.U.U.U.U.U.U.U.'.              ].U.U.U.U.U.U.U.U.U.U.U.[.        ",
"                                      `.U.U.U.U.U.U.U.U.U.U.U.U.U.U.U.U.U.U.U.'.              ].U.U.U.U.U.U.U.U.U.U.U.[.        "
};
