/* XPM */
static char *result[] = {
/* columns rows colors chars-per-pixel */
"64 64 69 1 ",
"  c #161719",
". c #17181B",
"X c #191A1C",
"o c #201A1D",
"O c #1D1D21",
"+ c #281E21",
"@ c #1F2024",
"# c #232225",
"$ c #2B2225",
"% c #252629",
"& c #2C2629",
"* c #27282C",
"= c #292A2D",
"- c #35262A",
"; c #33292D",
": c #382B2E",
"> c #2C2D31",
", c #332E32",
"< c #3A2D32",
"1 c #2F3034",
"2 c #343136",
"3 c #393236",
"4 c #34353A",
"5 c #3A363A",
"6 c #36393E",
"7 c #39393E",
"8 c #393B41",
"9 c #3F3F48",
"0 c #423F46",
"q c #3E4147",
"w c #3F4148",
"e c #414147",
"r c #41434A",
"t c #4E474F",
"y c #46484F",
"u c #50454E",
"i c #4B4D53",
"p c #514C57",
"a c #4F5159",
"s c #50515C",
"d c #5E545E",
"f c #585661",
"g c #565960",
"h c #5B5B66",
"j c #5C5D69",
"k c #5E606B",
"l c #61626D",
"z c #646672",
"x c #666874",
"c c #696B75",
"v c #6C6D79",
"b c #717180",
"n c #787985",
"m c #7D7D8F",
"M c #7F7F91",
"N c #81838B",
"B c #818194",
"V c #888894",
"C c #98999C",
"Z c #ADABC5",
"A c #AEAEC9",
"S c #B1AFCA",
"D c #B2B1CC",
"F c #B7B7D1",
"G c #B8B8D3",
"H c #C0C0D9",
"J c #DDDCFE",
"K c #E0DFFF",
"L c #E3E2FF",
/* pixels */
"MLLLLLLLLLLLLLLLLLLLLLLLLLLLLLLLJJJJJJJJJJJJJJJLJJLLJLLLJLLLJJLm",
"BDbhjkkkxVnzxkdlavvkkdiydkkkkkkgkcvkhkchxxkxatdkzvchkkkkxcvNcbDm",
"MZ8 XXO.XX XXXXXX. X XXXXX XX X X X X  XXX..XXXXX.XXXXXX@ XXX8Zm",
"BZq#&#$$$>==>>=>*>>>====****==@%%@%%%%%%*@%%%%%%%%%%%%%%%#%*#9Dm",
"BH0$&&@O&=42778888888888q7888888457646888888888888q7q771#X15@qFm",
"BD0#&@>*#$;7667888888788878688884=6q74666868786888w8q71@dNX=%qDm",
"BDq##81O4X28566788878887888888865266868668q77788776864XycX7oOqSm",
"BA9#@4OCaX47555q8887878787888888758768686668788888476%O*X12X#qSm",
"BZe#>ONaX27742=r8887888888888887747668w68888868888878$$@=>o-#8SN",
"VZq$44OX27q7422q88877868868877887687666886866q8q77868,;=oO&#%qSm",
"BZe#44>>7777yyq8887777888888887866678848868676648868855$%#+&%qDm",
"VZq*88887qq788888875778886688788q866687888886q6q878888;:42;,%qDm",
"BA9*88q86788888888877788888688776qay7787688878878888882:73;2%qZm",
"BZ0*77784q8888888877568888888188q1=1r787887878877888882283-4%eZN",
"MZ9*8qq8278888888777578888688y86q124r88867888q788888883588:5%9Zm",
"BF9+87785888888887755568868886886776877888878488888888558875%9AM",
"BF9*888838888888885433:78888888888888888>8888888888878858883*qDB",
"BG9*68883888888888335:;5w8888868486688841888888888885883888,%qDM",
"BG9*78883888e88888513:;5q86888888888488818888888888878888855*qAB",
"MD9*887q1888788888e41,*5q88868868888888841888888888828888855%qAM",
"BDq*8888i7888888888ee557886888888488884834888888q88848888845*qAB",
"BSq*88q8ee8888878886ee8e8888868688888888<2888888>88848888845*qAM",
"BAq*68888888880788888878888888q688888888;4888888488878888855%9AB",
"BAq*68888888e87888888888688868768848888838888888488885888845*9SB",
"BA9*8888889888786888888888887886886888871888888857888588q755%0DB",
"BA0*888888888858888888888686887q4888868818888888758885888805=8AM",
"BA9*6888q78888586888886q866687878886887888888888888885888775*8DB",
"BZ9>198867q8885888888866857687888888787888888888888q8588q777*9DB",
"BA9**888888q8848886q66q6856788788888888888888888888885088888*8SB",
"BA9%#98888888888886q6q66874487887867848888888888888888888888>9SB",
"BZ9**888887888q88q6666qq85,2q8778888ryr8888888887q8q88888088=0ZB",
"BZ0*889888888888866qq666q,,2e88886784,4888888888878788888888=rZB",
"BZr=q888888888886qq6888884148888878q4;2r88888888888888888866*wZB",
"BZq=8888q8888888666888688ryw8868888q4=5788888888888885q77qq==qZB",
"BZe&787877888888q6q6888888688887778846588888888888887q7q8q7%%qAB",
"BDe=77707q7888886866q66888868866888776588888888881887q7888q@%qAB",
"BD8*778778688888qq6688888888878q888758588888q78888889888898>*qSB",
"BD0*5880q7588888666q8888886888868788587888886888888888888886*qAB",
"BA0*58888858887788888884688886877878787888886q78878888888889*9AB",
"BD8#78888858877588888883786887887888778888886688848888888888*qAB",
"MD8*54888858988588888861878q66688887888888888888878888888886*qAB",
"BA9*5788888588658888884>8787q788876q888888668888888888888986*qAB",
"MA9*54888888888,888888438878678888678888q8ww88888888888q8887*9AB",
"BA9*55888884888e8888772378886786866q8888755re8888888888i88q7*9DB",
"BAq%5788888,88888888874587886868788886885&,,6q888888q7828888*9DB",
"BZq=<888888488888887885,868688888888888q5;,2158888e877828886*qFB",
"MD9%,8882884888888887875888686876888868q7;:5337788887q728887=9GB",
"MDq=38884888888888788884868888878886888853:3458888887q73q888%0GB",
"MAq%55q85588888888486q86887767778878688885557788888888858888@8FN",
"MZq%4:875388888887q7667888qw224q88y8886888557488888888858888=eZV",
"mZq%4-5823788888887876886q6q1=1q7818887888557788888888828e88*qZB",
"mZq%2;37:28888867888q6876778yiq67868878888677888887888788888*qSB",
"BDq%;;24:>88888886878888766866q68887887788887888887888788988%qZB",
"mDq%$$$*$4486886668888488488867687888788888678888wyy8888>*44%eZB",
"NA9%%&oo;;187788q8688886866766687878887888864888w132888,XO44%0ZB",
"mA8%$o=&O$$87886888868866w8668478878788878886888w143884XaNO>$0ZV",
"mSq@o4>@*+%8847887888788666777578766768878887888775374XaCX4O#9ZB",
"mD8@X8XcyO4876788787888866q677256qq7q68788786888866583X2O18##9SB",
"mD8%&+NgO188qr8888876886874687=26787866887888887877572$#*>O&%0FM",
"mGq%4>XO>88878888888888688647q4488q68q8888888889q86724=&#@&*&qHB",
"mD9@**#%%%%%%%%@%%%**@*@@%%%%%O#*@****=*===>=>====>=*>=$$&$%+9ZB",
"mZqX..XOXX.XXXXXXXXXXXX.XX.X XXXX.XXXXXXXXXXXXXXXXXXXXXXXXXX 8ZB",
"mDvcNvxxkkkjkcvxhdtazkxzhvkgkvvkkkkhkkksttdhlcvsjhkxznVxkkkjhbDB",
"mLKLKLLLLLLLJJLJLJJLJJJJJJJJJJJJLJLLLLLLLLLLLLLLLLLLLLLLLLLLLLLM"
};
