/* XPM */
static char *result[] = {
/* columns rows colors chars-per-pixel */
"64 64 186 2 ",
"   c #000000",
".  c #0E0903",
"X  c #0C0C0C",
"o  c #0B0603",
"O  c #130B03",
"+  c #1A0E03",
"@  c #120E0B",
"#  c #14100D",
"$  c #1F1004",
"%  c #161616",
"&  c #191715",
"*  c #191817",
"=  c gray10",
"-  c #2A1704",
";  c #2E1803",
":  c #231303",
">  c #331A04",
",  c #391E03",
"<  c #3E2104",
"1  c #2E261F",
"2  c #3C2C1B",
"3  c #3B3128",
"4  c #353535",
"5  c #402205",
"6  c #4A2604",
"7  c #46290C",
"8  c #482706",
"9  c #522A03",
"0  c #5B2E02",
"q  c #5E3003",
"w  c #5B300A",
"e  c #4A311A",
"r  c #653404",
"t  c #6D3705",
"y  c #6F3903",
"u  c #64310E",
"i  c #69340F",
"p  c #733C04",
"a  c #733E0A",
"s  c #6E3B12",
"d  c #723F13",
"f  c #774007",
"g  c #794107",
"h  c #774008",
"j  c #794209",
"k  c #7F480F",
"l  c #694018",
"z  c #67431F",
"x  c #744414",
"c  c #7F4910",
"v  c #754618",
"b  c #75491D",
"n  c #784214",
"m  c #4D4137",
"M  c #50463C",
"N  c #734E2A",
"B  c #77512C",
"V  c #78532F",
"C  c #614631",
"Z  c #785533",
"A  c #78593A",
"S  c #5E554B",
"D  c #565656",
"F  c #765F46",
"G  c #7A624C",
"H  c #7A6754",
"J  c #7C6F56",
"K  c gray38",
"L  c #766C64",
"P  c #80470F",
"I  c #834C14",
"U  c #844E19",
"Y  c #865017",
"T  c #875119",
"R  c #8B541B",
"E  c #8F581E",
"W  c #90581D",
"Q  c #9C6103",
"!  c #9F680E",
"~  c #9D6309",
"^  c #996414",
"/  c #9A6516",
"(  c #A66A03",
")  c #AF790E",
"_  c #B27604",
"`  c #B57903",
"'  c #B87C07",
"]  c #B57B09",
"[  c #BA7D0A",
"{  c #AF7910",
"}  c #AB791A",
"|  c #8F5A21",
" . c #915D23",
".. c #946026",
"X. c #966329",
"o. c #99662B",
"O. c #9B692E",
"+. c #9B6D20",
"@. c #9E6C32",
"#. c #9C7C3C",
"$. c #9F7B35",
"%. c #A5772A",
"&. c #A06E33",
"*. c #A37236",
"=. c #A57538",
"-. c #A87839",
";. c #A57C30",
":. c #967C4A",
">. c #997C46",
",. c #917D59",
"<. c #BC810E",
"1. c #BE8413",
"2. c #BA8827",
"3. c #AA853C",
"4. c #AB8334",
"5. c #B78931",
"6. c #B88B34",
"7. c #C18716",
"8. c #C28817",
"9. c #C38719",
"0. c #C48B1B",
"q. c #C98B1F",
"w. c #C68E21",
"e. c #CD8C23",
"r. c #D08F28",
"t. c #CA9124",
"y. c #CD962B",
"u. c #D0992E",
"i. c #D0972C",
"p. c #CD9932",
"a. c #D59631",
"s. c #DA9633",
"d. c #D69D35",
"f. c #D99934",
"g. c #D89F39",
"h. c #D19F3B",
"j. c #D7A037",
"k. c #D7A23C",
"l. c #D9A23B",
"z. c #A88542",
"x. c #A58B58",
"c. c #9E927B",
"v. c #BD9F6B",
"b. c #B39F79",
"n. c #B4A27D",
"m. c #BFA473",
"M. c #D5A441",
"N. c #DCA542",
"B. c #DFAA45",
"V. c #DEAC4A",
"C. c #DFB256",
"Z. c #E0AB47",
"A. c #E2AE4B",
"S. c #E4B14E",
"D. c #E1AF50",
"F. c #E5B352",
"G. c #E5B75C",
"H. c #E6B85D",
"J. c #E8BB5F",
"K. c #C7A86B",
"L. c #D1AA61",
"P. c #DFB764",
"I. c #EABD64",
"U. c #E6BC64",
"Y. c #EAC16B",
"T. c #EBC470",
"R. c #868686",
"E. c #9B968A",
"W. c #9C9382",
"Q. c #9B9995",
"!. c #9D9D9C",
"~. c #9A9691",
"^. c #AB9F88",
"/. c #A8A49D",
"(. c #A4A5A4",
"). c #ABABAB",
"_. c #B7B3AB",
"`. c #B4B4B4",
"'. c #BCBCBC",
"]. c #CCCCCC",
"[. c #C3C3C3",
"{. c #D1CDC6",
"}. c #D6D2CA",
"|. c #D4D4D4",
" X c #DBD7D0",
".X c #DCDCDC",
/* pixels */
"                                                        @                                                                       ",
"                                                  B a j p v F                                                                   ",
"                                              z p k ..*.@.R j p A                                                               ",
"                                        H b p k X.o.@.*.-.*.*. .j a Z                                                           ",
"                                    F v p I O.O.| Y R R O.*.*.=.*.X.j p N 3                                                     ",
"                                3 v h Y O.X. .R R R E R R  .o.*.*.=.=. .c p N m                                                 ",
"                            # u p E o.o.E R R R E R R R R R R  .X.*.*.*.*.X.I p b o                                             ",
"                          e j | O. .E R R E R R R R U I I U R R R R X.@.*.*.*.@.R p 1                 #.#.#.#.:.                ",
"                          p | | | R R W R R R R c h a p p a j I R R R R ..@.*.*.*.Y x               } ` 1.1.1._ :.              ",
"                        h c R R R R E R Y I j p t 6 : o O > q t p j Y R R R | @.=.&.k B           #.1.1.w.Y.T.j.] J             ",
"                      b h R R R R T I j p t 9 - .           X . < q p p k Y R R @.=.o.p G       x._ j.k.<.y.Y.Y.w.}             ",
"                    2 p U R R T j p r 9 - o             o           O < q t p I R @.=.R a S     } 1.A.S.u.` l.Y.G.1.#.          ",
"                  M p I R R R c r > O o   X       o X % % X             o $ 8 p Y  .*.*.c b   ,.] d.B.B.A.' a.F.Y.y.}           ",
"                  v j Y R R U p <             X % % % % % % % X X o         o q h R o.=.O.f A z.[ t.1.0.y.1.t.S.H.M.)           ",
"                V p R R R E g 9 X       X % % % % % % % % % % % % % X X o     # t P R @.=. .p / ' ' <.7.` [ 8.S.F.V.]           ",
"              H p I E R R k p O   o % % % % % % % % % % % % % % % % % % % X X   > p Y  .*.*.Y ( ` y.7.7.p.` <.S.S.H.`           ",
"            o a c R R R I p -   X * % % % % % % % % % % % % % % % % % % % % %     9 a R X.&.&._ ` k.1.0.V.] ` S.F.J.] x.        ",
"            v h R R R R a 9   o % % % % % % % % % % % % % % % % % % % % % % % %   + y P R O.*._ <.B.1.7.V.1._ B.F.G.1.:.        ",
"          A p Y R R R j t .   % % % % % % % % % % % % % % % % % % % % % % % % % @   > p Y R %._ 1.V.0.1.M.y.` l.S.F.w.3.        ",
"        H p I R R R I p ;   X & % % % % % % % % % % % % % % % % % % % % % % % % % o o 0 a R ^ _ t.S.1.8.k.k.` u.S.F.p.%.        ",
"        x t U E R R p 9 o   % % % % % % % % % % % % % % % % % % % % % % % % % % % %   + t I ^ ` u.V.1.8.j.C._ t.S.S.M.)         ",
"      A y u I R W P r O   % % % % % % % % % % % % % % % % % * % % % % % % % % % % % X   > p ~ _ N.V.0.8.j.H.] 0.S.S.V._         ",
"      Z t u Y R R j <   X % % % % % % % % % % % % % % % % % % % % % % % % % % % % % %     r Q ` A.V.1.1.j.J.<.0.S.S.D._         ",
"      Z t u T R R j , X % % % % % % % % % % % % % % % % % % % % % % % % % % % % % % % % X s ( ] S.A.1.8.j.G.1.1.S.S.F.`         ",
"      Z t u U R R j , % % % & % % % % % % % % % % % % % % % % % % % % % % % % % % % % % % ,.3.` F.V.0.7.j.F.1.0.F.S.V._         ",
"      Z t u T R R j 7 % % % % % % * % % % % % % % % % % % % % % % % % % % % % % % % % % = R.3.] S.S.1.7.j.F.1.7.S.S.B.`         ",
"      Z t u U R R j 7 % % % % % % % % % % % % % % % % % % % % % % % % % % % % % % % % % = R.x.` A.V.1.7.j.F.1.7.S.S.B.`         ",
"      Z t u U R R a 7 % % % % % % % % % % % % % % % % % % % % % % % % % % % % % % % % % = R.z._ S.V.7.7.d.F.1.8.S.S.V.`         ",
"      Z t u U R R g 7 % % % % % % % % % % % * % % % % % % % % % % % % % % % % % & % % % = R.3.' S.V.0.1.d.F.1.7.S.F.B.`         ",
"      Z t u U R R j 7 % % % % % % % % % % % % % % % % % % % % % % % % % % % % % % % % % = R.3.' Z.A.1.7.d.F.1.7.S.S.V.`         ",
"      Z t u U R R j 7 % % % % % % % % % % % % % % % % * % % % % % % % % % % % % % % % % = R.3.` r.t.1.7.0.r.[ 7.S.S.B.`         ",
"      Z t u U R R g 7 & % % % % % % % % % % % % % % % % % % % % % % % % % % % % % % % % = R.3.` 7.0.t.u.0.0.<.0.S.S.V.`         ",
"      Z t u U R R j 7 % % % % % % % % % % % % % % % % % % % % % % % % % % % % % % % % % = R.3.[ a.B.A.F.S.F.0.0.F.S.B.`         ",
"      Z t u U R R j 7 % % % % % % % % % % % % % % % % % % % % % % % % % % % % % % % % % = R.3.` 1.1.6.K.K.D.t.7.S.S.V.`         ",
"      Z t u U | R j 7 % % % % % % % % % % % % % % % % % % % % % % % % % % % % % % % % % = R.3.] P.b.~.(.!.n.t.1.S.S.V.`         ",
"      Z t u U T R j 7 % % % % % % % % % % % % % % % % % % % % % % % % % % % % = % % % % = R.3.] ^.).|..X|.!.6.0.S.S.B._ _.4     ",
"      Z t i U R R j 7 % % % % % % % % % % % % % % % % % % % % % % % % % % % % % % % % % = R.3.z.(.].|..X.X).x.1.S.S.B.`  X`.    ",
"      Z p u T R R j 7 % % % % % % % % % % % % % % % % % % % % % % % % % % % % % % % % % & C +.W.'.|.|.|..X[.c.0.S.A.V._  X.XK   ",
"      Z t u R R R j 7 % % % % % % % % % % % % % % % % = % % % % % % % % % % % % % % % % & r ^ ~.].|.|.|..X].E.9.F.S.V.` }..X).  ",
"      Z t w Y Y R j 7 % % % % % % % % % % % % % % % % % % % % % % % % % % % % % % % % % = r / Q.].|.|.|.|.|.E.0.S.S.V.` {..X`.  ",
"      Z t u U R E j 7 % % % % % % % % % % % % % % = % % % % % % % % % % % % % % % % % % & r ^ ~.'.|.|.|.|.{.E.0.A.S.V.` {.|.).  ",
"      Z t u U R R j 7 % % % % % % % % % % % % % % % % % % % % % % % % % % % % % % % % % & r Q c.).].|.|.|.'.c.8.S.S.V.` {.].D   ",
"      Z t u U R R j 7 % % % % % % = % % % % % % % % % % % % % % % % % % % % = % % % % % & r Q 4.!.'.].|.|.(.x.8.A.F.Z.` {.).    ",
"      Z t u T R R j 7 % % % % % % % % % % % % % % % % % % % % % % % % % % % % % % % % % & r Q ] b.!.`.[.'.Q.2.8.S.S.V.` /.o     ",
"      Z t u T R R f 7 % % % % % % % % % % % % % % % % % % % % % % % % % % % % % % % % % = r Q ' N.v.^.Q.Q.m.w.8.S.F.V.`         ",
"      Z p u R R R j 7 % % % % % % % % % % % % % % % % % % % % % % % % % % % % % % % % % = r Q ` 9.9.2.L.L.S.0.8.S.A.V.`         ",
"      Z t u U R R j 7 % % % % % % % % % % % % % % % % % % % % % % % % % % % % % % % % % & H %.[ q.y.p.A.S.S.w.7.S.S.B.`         ",
"      Z t u U R R x 7 % % % % % % % % % % % % % % % % % % % % % % % % % % % % % % % % % = R.3.[ s.Z.A.A.B.S.w.0.S.S.V.`         ",
"      Z t u U R T j 7 % % & % % % % % % % % % % % % % % % % % % % % % % % % % % % % % % = R.3.` [ <.1.0.[ 1._ 8.A.S.V.`         ",
"      Z t u U T R j 7 % % % % % % % % % % % % % % % % % % % % % % % % % % % % % % % % % = R.3.] Y.U.8.1.F.Y.1.8.S.F.B.`         ",
"      Z t u U R R j 7 % % % % % % % % % % % % % % % % % % % % % % % % % % % % % % = % % = R.3.` F.F.1.1.k.G.[ 8.S.S.V.`         ",
"      Z t u U R R a 7 = % % % % % % % % % % % % % % % % % % % % % % % % % % % % % % % & = R.3.' Z.A.8.1.l.F.1.8.S.S.V.`         ",
"      Z t u U R R a 7 % % % % % % % % % % % % % % % = % % % % % % % % % % % % % % % % % = R.3.' A.D.0.1.j.F.1.8.S.S.B.`         ",
"      Z t u U R R a 7 % % % % % % % % % % % % % % % % % % % % % % % % % % % % % % % % % = R.3.] A.A.1.1.l.F.1.8.S.F.V.`         ",
"      Z t u U R W a 7 % = % % % % % % % % % % % % % % % % % % % % % % % % % % % % % % % = R.3.' A.V.1.1.l.F.1.8.S.F.V.`         ",
"      Z t u R R Y P 7 % % % % % % % % % % % % % % % % % % % % % % % % % % % % % % % % % = R.3.' A.F.0.1.l.F.1.8.S.S.V.`         ",
"      Z t u U R R a 7 % % % % % % % % % % % % % % % % % % % % % % % % % % % % % % % % % = R.3.` A.F.1.7.j.F.<.8.S.F.V.`         ",
"      Z t u R R Y P 7 % % % % % % % % % % % % % % % % % % % % % % % % % % % % % % % % % = R.3.' A.S.7.1.l.S.7.7.S.S.B.`         ",
"      Z t u U R R P 6 & % % % % % % % % % % % % % % % % % % % % % % % % % % % % % % % % = R.z.] A.S.1.1.l.S.<.9.S.S.B.`         ",
"      Z t i U R R p 7 & % % % % % % % % % % % % % % % % % % % % % = % % % % % % % % % % = L ;.` l.N.8.7.s.Z.7.9.S.S.V.`         ",
"      Z t u s s v f 7 X @ X % X X X % X X X X X % X X X X X X X X X % X X X # X X X % X @ w Q ` 0.9.[ 7.<.9.' 9.S.F.B.`         ",
"      Z t u u u u t < X X o X X X X X o X X X X X X X X X X X X X X o o X X X X X X o X X r Q ] e.q.e.r.q.e.<.<.s.f.a._         ",
"      Z t u u r u y < X X o X X X o X X X X X X X X X X X X X X X X X X X o X X o X X o X r Q [ s.s.s.s.s.s.7.7.s.s.a.`         ",
"      Z p p t p y p y t t y y t y y y y y y y y y y y r y y y y y t y t t y t t y y t y y p ( ` ` ` ` ` ` ` ` ` ` ` ` `         "
};
