/* XPM */
static char *result[] = {
/* columns rows colors chars-per-pixel */
"64 64 62 1 ",
"  c black",
". c #393900",
"X c #AAAA00",
"o c #555500",
"O c yellow",
"+ c #1C1C00",
"@ c #8E8E00",
"# c #AAFF00",
"$ c green",
"% c #005500",
"& c #8EFF00",
"* c #55FF00",
"= c #39FF00",
"- c #00C600",
"; c #00AA00",
": c #007100",
"> c #55FF55",
", c #1CC61C",
"< c #00E300",
"1 c #008E00",
"2 c white",
"3 c #555555",
"4 c #717100",
"5 c #C6C600",
"6 c #FFFF55",
"7 c #AAFFAA",
"8 c #718E00",
"9 c #395500",
"0 c #C6B50B",
"q c #FFCC22",
"w c #55CC22",
"e c #E3FF39",
"r c #E3FFE3",
"t c #552222",
"y c #FF6767",
"u c #AA4545",
"i c #AAAAAA",
"p c #8EAB39",
"a c #39A517",
"s c #71C671",
"d c #398E39",
"f c #AA9A45",
"g c #8EB50B",
"h c #39FF39",
"j c gray89",
"k c #8EC600",
"l c #71FF00",
"z c #55EE44",
"x c #FFCCCC",
"c c #FFEEEE",
"v c #55E155",
"b c #070607",
"n c #FFAAD0",
"m c #55AA31",
"M c #8ECE8E",
"N c #8E8848",
"B c #FF4576",
"V c #FF7C9A",
"C c #FFC0DD",
"Z c #FFE1FF",
"A c #FFADD1",
"S c #FFA6D2",
/* pixels */
"                                                                ",
"                                                                ",
"                                                                ",
"                                                                ",
"                                                                ",
"                                  .XXX                          ",
"                                  oOOO                          ",
"                              +ooo@OOOooo+                      ",
"                              oOOOOOOOOOOo                      ",
"                              oOOOOOOOOOOo                      ",
"                              oOOOOOOOOOOo                      ",
"                oOOOOOOOOOOOOO#$$$$$$$$$$$$$$$$$%               ",
"                oOOOOOOOOOOOOO#$$$$$$$$$$$$$$$$$%               ",
"                oOOOOOOOOOOOOO#$$$$$$$$$$$$$$$$$%               ",
"                +oooOOOOOOO&**=$$$$$$$$$$$$$$$$$-;;:            ",
"                    OOOOOOO*$$$$$$$$$$$$$$$$$$$$$$$;            ",
"                    OOOOOOO*$$$$$$$$$$$$$$$$$$$$$$$;            ",
"                    XXXX###=$$$$$$$$$$>>>,;;<$$$-;;1%%%         ",
"                        $$$$$$$$$$$$$$2223  ;$$$%  %$$$         ",
"                        $$$$$$$$$$$$$$2223  ;$$$%  %$$$         ",
"                        $$$$$$$$$$$$$$2223  ;$$$%  %$$$         ",
"             XOOOOOOOOOO$$$$$$$$$$>2222223  ;$$$%  3222         ",
"             XOOOOOOOOOO$$$$$$$$$$>2222223  ;$$$%  3222         ",
"             4XX5OOO####$$$$$$$$$$>2222223  ;$$$%  3222         ",
"                oOOO$$$$$$$$$$$$$$>2222223  ;$$$%  3222         ",
"                oOOO$$$$$$$$$$$$$$>2222223  ;$$$%  3222         ",
"                oOOO$$$$$$$$$$$$$$>2222223  ;$$$%  3222         ",
"                    $$$$$$$#OOOOOO6222222222>$$$7222222$$$%     ",
"                    $$$$$$$#OOOOOO6222222222>$$$7222222$$$%     ",
"                    $$$$$$$#OOOOOO6222222222>$$$7222222$$$%     ",
"             4XXXXXX$$$$###8oo@OOO6222222222>$$$7222222###9     ",
"             XOOOOOO$$$$OOOo  oOOO6222222222>$$$7222222OOOo     ",
"             XOOOOOO$$$$OOOo  oOOO6222222222>$$$7222222OOOo     ",
"             4XX0qqqwwww###9  oOOOe777222222>$$$722r777###9     ",
"                tyyyyyyy$$$%  oOOO#$$$222222>$$$7227$$$$$$%     ",
"                tyyyyyyy$$$%  oOOO#$$$222222>$$$7227$$$$$$%     ",
"                tyyyyyyy$$$%  oOOO#$$$222222>$$$7227$$$$$$%     ",
"             uyyyyyyyyyyyyyw$$;             i2223               ",
"             uyyyyyyyyyyyyyw$$;             i2223               ",
"             uyyyyyyyyyyyyypwwa%%%%%%%%%%%%%s777d%%%%%%         ",
"             uyyyyyyyyyyyyyyyyf$$$$$$$$$$$$$$$$$$$$$$$$         ",
"             uyyyyyyyyyyyyyyyyf$$$$$$$$$$$$$$$$$$$$$$$$         ",
"             uyyyyyyyyyyyyyyyyf$$$$$$$$$$$$$$$$$$$$$$$$         ",
"                tyyyyyyy$$$$$$$$$$$$$$2222222222222i            ",
"                tyyyyyyy$$$$$$$$$$$$$$2222222222222i            ",
"                tyyyyyyy$$$$$$$$$$$$$$2222222222222i            ",
"             4XXgwwwwwww$$$$$$$$$$h7772222222222222jiii         ",
"             XOO#$$$$$$$$$$$$$$$$$>22222222222222222222         ",
"             XOO#$$$$$$$$$$$$$$$$$>22222222222222222222         ",
"          oook##l$$$$$$$$$$$$$$$$$zxxxxxxxxxc2222222222         ",
"          OOO*$$$$$$$$$$$$$$$$$$$$wyyyyyyyyyx2222222222         ",
"          OOO*$$$$$$$$$$$$$$$$$$$$wyyyyyyyyyx2222222222         ",
"          OOO*$$$$$$$$$$$$$$$$$$$$wyyyyyyyyyx2222222222         ",
"      $$$$$$$$$$vb  $$$$$$$$$$wyyyyyyyyyyyyyyyyyx22xyyyyyyn     ",
"      $$$$$$$$$$v   $$$$$$$$$$wyyyyyyyyyyyyyyyyyx22xyyyyyyn     ",
"      mmmmvvvvvvM   vvvvmmmmmmNBBBBBBBVVVVVVVVVVCZZABBBBBBS     ",
"                                                                ",
"                                                                ",
"                                                                ",
"                                                                ",
"                                                                ",
"                                                                ",
"                                                                ",
"                                                                "
};
