/* XPM */
static char *result[] = {
/* columns rows colors chars-per-pixel */
"150 44 42 1 ",
"  c #010000",
". c #0B0303",
"X c #120405",
"o c #190607",
"O c #1C0708",
"+ c #23080A",
"@ c #2C0B0D",
"# c #300C0E",
"$ c #360D10",
"% c #3C0F12",
"& c #451114",
"* c #4C1317",
"= c #531519",
"- c #5B161B",
"; c #60171D",
": c #63181E",
"> c #691A1F",
", c #6C1A20",
"< c #721C22",
"1 c #7B1E24",
"2 c #822027",
"3 c #862128",
"4 c #8B2229",
"5 c #94242C",
"6 c #9C262E",
"7 c #9F2730",
"8 c #A02730",
"9 c #A62931",
"0 c #AB2A33",
"q c #B42C35",
"w c #B92E37",
"e c #BD2E38",
"r c #C12F39",
"t c #C5303B",
"y c #CB323D",
"u c #D2343F",
"i c #D73540",
"p c #DC3642",
"a c #E13743",
"s c #E73945",
"d c #E83945",
"f c None",
/* pixels */
"ffffffffffffffffffffffffffffffffffffffffffffffffffffffffffffffffffffffffffffffffffffffffffffffffffffffffffffffffffffffffffffffffffffffffffffffffffffff",
"ffffffffffffffffffffffffffffffffffffffffffffffffffffffffffffffffffffffffffffffffffffffffffffffffffffffffffffffffffffffffffffffffffffffffffffffffffffff",
"ffffffffffffffffffffffffffffffffffffffffffffffffffffffffffffffffffffffffffffffffffffffffffffffffffffffffffffffffffffffffffffffffffffffffffffffffffffff",
"ffffffffffffffffffffffffffffffffffffffffffffffffffffffffffffffffffffffffffffffffffffffffffffffffffffffffffffffffffffffffffffffffffffffffffffffffffffff",
"ffffffffffffffffffffffffffffffffffffffffffffffffffffffffffffffffffffffffffffffffffffffffffffffffffffffffffffffffffffffffffffffffffff         fffffffff",
"fffffffffffffffffffffffffffffffffffffffffffffffffffffffffffffffffffffffffffffffffffffffffffffffffffffffffffffffffffffffffffffffffff.*,,,,,,:+fffffffff",
"fffffffffffffffffffffffffffffffffffffffffffffffffffffffffffffffffffffffffffffffffffffffffffffffffffffffffffffffffffffffffffffffffff.9ddddddp= ffffffff",
"fffffffffffffffffffffffffffffffffffffffffffffffffffffffffffffffffffffffffffffffffffffffffffffffffffffffffffffffffffffffffffffffffff.9ddsssdi= ffffffff",
"fffffffffffffffffffffffffffffffffffffffffffffffffffffffffffffffffffffffffffffffffffffffffffffffffffffffffffffffffffffffffffffffffff.9dsssssi= ffffffff",
"fffffffffffffffffffffffffffffffffffffffffffffffffffffffffffffffffffffffffffffffffffffffffffffffffffffffffffffffffffffffffffffffffff.9ssssssi= ffffffff",
"fffffff          fff         fff         ff              ffffff              fffff         fffffffffffff              ffffff       .9dsssssi= ffffffff",
"fffffff.;<<<<<<<+ff %<<<<<<,+ f &<<<<<<,O .&,<<<<<<<<<<,-@.ff X*><<<<<<<<<<,-@ ff.*<<<<<<<+ ffffffffff .%:<<<<<<<<<<,-+.ff .&><<<<<1tssssssi= ffffffff",
"fffffff.wsdddddd: f.5dddddds: f 9ddddddy++edddddssddddddsp1. @tsdddddddddddddp,  X9dddssdd=.........  #0ddddddddsdddsdp,  Orddddddddsssssssi= ffffffff",
"fffffff.6sssssds3 f.9dssssss2 f wsdssssto1ddsssssssssssssdi@.4ssssssssssssssssy+4tpsssssssityytttttr&.4sddssssssssssssdy+ 1dsssssssssssssdsi= ffffffff",
"fffffff 1sssssss9 f+wdssssss6.f.usssssdqo7dssdssssssssssdsa*.0ddssssssssdsssddp%6dssssssssssssssddds=.wssssdsssdsssssssp$ 7ssssssssssssssssi= ffffffff",
"fffffff -assssssr. *usssssssqO +ssssdsd4.9ssssssssdsssdssss=.wdsssssdsssssssddp%7ddsssssssssssssddss=.wssssssssssssssssp% 9sssdssssssssssssp= ffffffff",
"ffffffff%pssssssuX :pddsssdst@ &dssssss,.0sssssssdsssssssss=Xqsssssssdddssssssp%7sssssssssssssssssss=Xwsssssssddsdssssdp% 0assssssdssssssssu= ffffffff",
"ffffffff+usssssds@ 3asddssssu= =dsssdsa=.0sssssssq5isdsssss=Xqssssdsd06pssssssp%7sdssssdssssssssssss=Xwsssssss06udsssssp% 0sssssds96ysssssdu= ffffffff",
"ffffffffowsssdssd& 9ssssdsssa1 2dsssssp#.7iipipip% 0sssssss=Xqssdsssd%.wipippii$5passssssspppipiiiii*Xwsssssss$ 0ddsdsdp% 0ssdssspO.0sssdddu= ffffffff",
"ffffffff.8dsssssd;.ydsssssssa5 0ssssssto +####@$#X 0sdsssss=Xqssssssd% @######+XO$0ddsssss,########@XXwsssssss$ 0dssdddp% 0assssdpO.9sssdddp= ffffffff",
"ffffffff 1ddsdssd4Xpssssssssdq.esssssd0Xf .@&***==*esssssss=Xqssssssd<******%o   .8dssssss* %*=*****oXwsssssss%Xqsssssdp% 9sssssdp+.9dssssdu- ffffffff",
"ffffffff -sdsssssq@asssssdssdyousssdss3  o5uaasapspssssssss=Xwssdsssssassasape* f.8dssssss* 0saasssp=Xwssssssdtwpsdsssdp% 9ssssdda+.9dssssdp= ffffffff",
"fffffffff&asssdsst*sssssssssdp&assssss=  >asdsdsssddsssssss=Xqssssdssssdsssssstof.8dsssdss* 9sssssss=Xwssssssssssssssssp% 0assssspO.9sdsdssu= ffffffff",
"fffffffff@issssssi1ssssssssdds>ddssssa# .6dsssssddddssssssp=.qssssssssssssssssi%f.8dssssss* 0sssssss=Xwssdsssssssssssdsp% 0sdssssaO.9dsssssu= ffffffff",
"fffffffffoeddsssda9ssssptsssds9ddssdsio .0sssssssssssssssss=.0ssssdsssssssssssp%f.6sdssssd* 0sssssss*Xwssssssdsdsdddsssp% 0assssdp+.8ssssssi= ffffffff",
"fffffffff.8dssssssassssy4ssssspssssssq f.0sddssssssssssssss= -assssssassssssssp%f.8ssssssd* 0ssssssa=Xwssdssssssssdpsssi% 0sssssda+.9dsssssi= ffffffff",
"fffffffff 2dsssssdssssd0:sdsssdsssssd4 f.0ssssdss,+qsssssss= .=0tiiyiyisssssssp%f.8dsssdss* 0sssssss=Xwsssssssiiiiiiiiiy% 0sssssspO.9ssssssi= ffffffff",
"fffffffff &sssdsssssssd3#pssssdsssssd, f.0sssssss& 0sssssss*     . .. .ysssssap%f.8dssssss* 0sssssss=Xwsssssss$    .   .  0asssssaO.9ssssssi= ffffffff",
"fffffffff Opsdsssssssss,Oyssssdsssssd% f.9ddssssd& 0sssssss=.>4444444+ yssssssp%f.8ddsssss* 0ssdsssa=Xwssssdss$ >4444443+ 9ssssssp+.9dsssssi= ffffffff",
"ffffffffff.tsssssssdssa*Xesssssssssss+ f.9dddsssd-Oqsssssss=.wsssssss=Oisdsdssp%f.8dssssss:Oqsssssss=Xwsssssss*+qssssdsp% 9ssssssa%+0ssssdsi= ffffffff",
"ffffffffff 9ssssssssssu@.6dssdssssssiXff.0sdssssdspsssdssss=.wsssssssaasssssssp%f.6dssdsssaaasssssss=.wssssssspassssssdp% 9sssssssaasssssssi= ffffffff",
"ffffffffff 1dsssdsssssto <sssssssssse ff.9ssssssssdssssssss=Xqssssssssssssssdsp%f.6dssssssddssssssss=Xwsdsssssssssssssdp% 0ssssssssssssssssp= ffffffff",
"ffffffffff :sssssssdsdqX -sdsssdssss6 ff.9sssssdsssdssdssss=Xwsssssdssssssssssp%f.7sssdsssdssssssssa=Xwssssssssssssssssp% 0asssssssdsssssssi= ffffffff",
"ffffffffff &sssssssssd4. &assssssssd< ff.6ddsssssssssssssss=.0ssssssssdsssssssp#f.6ssssssssssdssssss*.0ssssssssssdsssssp# 6sssssssssssdssssp= ffffffff",
"ffffffffff Oasssdsssss, f+usdsddsssd= ff :adssssdssssdsssss= 1ssssdssssssssssswof :assssssdsssssssst+ <asssssssdsdssssswo :sddssdssdsdsssssi= ffffffff",
"fffffffffff.tppppppppp= fXwppppppppp@ffff.<wupppppppppppppp* X1wippppppppppiy6% ffX<quppppppppppii7%  o:quppppppppppiy7$  .1eupppppppppppppy= ffffffff",
"fffffffffff @#@#######Xff.+######@#@.fffff o@#@#########@$#Xf .X@@#########@O. ffff X+@##########+. ff  X@#####$#####O. ff .o@##########@##@Xfffffffff",
"ffffffffffffffffffffffffffffffffffffffffffffffffffffffffffffffffffffffffffffffffffffffffffffffffffffffffffffffffffffffffffffffffffffffffffffffffffffff",
"ffffffffffffffffffffffffffffffffffffffffffffffffffffffffffffffffffffffffffffffffffffffffffffffffffffffffffffffffffffffffffffffffffffffffffffffffffffff",
"ffffffffffffffffffffffffffffffffffffffffffffffffffffffffffffffffffffffffffffffffffffffffffffffffffffffffffffffffffffffffffffffffffffffffffffffffffffff",
"ffffffffffffffffffffffffffffffffffffffffffffffffffffffffffffffffffffffffffffffffffffffffffffffffffffffffffffffffffffffffffffffffffffffffffffffffffffff",
"ffffffffffffffffffffffffffffffffffffffffffffffffffffffffffffffffffffffffffffffffffffffffffffffffffffffffffffffffffffffffffffffffffffffffffffffffffffff",
"ffffffffffffffffffffffffffffffffffffffffffffffffffffffffffffffffffffffffffffffffffffffffffffffffffffffffffffffffffffffffffffffffffffffffffffffffffffff",
"ffffffffffffffffffffffffffffffffffffffffffffffffffffffffffffffffffffffffffffffffffffffffffffffffffffffffffffffffffffffffffffffffffffffffffffffffffffff"
};
