/* XPM */
static char *result[] = {
/* columns rows colors chars-per-pixel */
"64 64 174 2 ",
"   c black",
".  c #0E0C09",
"X  c #1C0F03",
"o  c #19130C",
"O  c #1E1814",
"+  c #2D1906",
"@  c #261E16",
"#  c #38210B",
"$  c #2F261D",
"%  c #3C2C1A",
"&  c #322C25",
"*  c #3C3329",
"=  c #432B14",
"-  c #503010",
";  c #593716",
":  c #6D3906",
">  c #64310E",
",  c #69380C",
"<  c #723A04",
"1  c #733F0C",
"2  c #673917",
"3  c #6D3C12",
"4  c #623F1D",
"5  c #713F14",
"6  c #463524",
"7  c #73400C",
"8  c #7B440B",
"9  c #7F480F",
"0  c #6B4119",
"q  c #744211",
"w  c #7D4817",
"e  c #7E4918",
"r  c #784214",
"t  c #544231",
"y  c #644323",
"u  c #734B24",
"i  c #77522C",
"p  c #6F5236",
"a  c #745538",
"s  c #935A05",
"d  c #955E0A",
"f  c #834D14",
"g  c #824B19",
"h  c #865118",
"j  c #8B541B",
"k  c #8E581C",
"l  c #965E14",
"z  c #985F14",
"x  c #91591C",
"c  c #9E650F",
"v  c #9A6212",
"b  c #A2690D",
"n  c #A86D0B",
"m  c #A0660C",
"M  c #BC6F0F",
"N  c #AE7306",
"B  c #B17504",
"V  c #B67A04",
"C  c #B87C06",
"Z  c #BC700E",
"A  c #B77C08",
"S  c #BB7D0B",
"D  c #A36E19",
"F  c #BF7511",
"G  c #8E5A21",
"H  c #815227",
"J  c #915C23",
"K  c #956127",
"L  c #966228",
"P  c #99662B",
"I  c #9B692E",
"U  c #9D6F23",
"Y  c #8E6336",
"T  c #9F6D32",
"R  c #A06F34",
"E  c #A37237",
"W  c #A57538",
"Q  c #A67C38",
"!  c #C47817",
"~  c #8E6840",
"^  c #82644A",
"/  c #896747",
"(  c #92785E",
")  c #927A61",
"_  c #BC800D",
"`  c #BD8212",
"'  c #BF881A",
"]  c #C18414",
"[  c #C38917",
"{  c #C5891C",
"}  c #C98A1E",
"|  c #C0871A",
" . c #CE8222",
".. c #C48E22",
"X. c #C98D21",
"o. c #D08624",
"O. c #D28925",
"+. c #D48F29",
"@. c #C69126",
"#. c #CB9225",
"$. c #C69229",
"%. c #CB952B",
"&. c #D3942D",
"*. c #D0982E",
"=. c #CF9E3B",
"-. c #CD9832",
";. c #D69530",
":. c #D89633",
">. c #D59C34",
",. c #D99A36",
"<. c #D29C3B",
"1. c #D99E38",
"2. c #D4A13A",
"3. c #DBA23D",
"4. c #A98746",
"5. c #B18F4E",
"6. c #B69555",
"7. c #B89656",
"8. c #BB9A59",
"9. c #8F857D",
"0. c #958472",
"q. c #B89868",
"w. c #BB9A67",
"e. c #B69B72",
"r. c #BEA473",
"t. c #CF9E4E",
"y. c #C8974D",
"u. c #C79751",
"i. c #C29F5E",
"p. c #D5A544",
"a. c #DCA641",
"s. c #DDA944",
"d. c #DCAC4D",
"f. c #DDAE52",
"g. c #D5AC5D",
"h. c #D0A75D",
"j. c #DDB155",
"k. c #DEB359",
"l. c #E0A643",
"z. c #E1AA46",
"x. c #E3AD4A",
"c. c #E4B14E",
"v. c #E5B452",
"b. c #E1B55A",
"n. c #E7B95C",
"m. c #E8BA5E",
"M. c #C09D64",
"N. c #C4A76D",
"B. c #C9A868",
"V. c #E5BB63",
"C. c #E9BD62",
"Z. c #E8BF68",
"A. c #EBC36D",
"S. c #EAC067",
"D. c #EBC572",
"F. c #EECB7C",
"G. c #EDC878",
"H. c #9D9994",
"J. c #9C9C9C",
"K. c #A59883",
"L. c #A39B8B",
"P. c #A99E87",
"I. c #A19B90",
"U. c #B1A181",
"Y. c #A3A3A3",
"T. c #ACACAC",
"R. c #B5B5B5",
"E. c #BABABA",
"W. c #EFCD81",
"Q. c #C5C5C5",
"!. c #CDCDCD",
"~. c #D4D4D4",
"^. c #DBDBDB",
"/. c #E2E2E2",
/* pixels */
"                                                              6 6                                                               ",
"                                                          p q 1 1 q a                                                           ",
"                                                      i 1 8 G E R x 8 < i                                                       ",
"                                                . y 1 8 J I P E W E E K 8 1 u                                                   ",
"                                            & ; 1 f K I J j j k I T E W W P f < 0 .                                             ",
"                                          X : g K P J j j j j j j k P E W W W L f < 0 .                                         ",
"                                      + : h I P x j j j j j j j j j j x L T W E E P h 1 - .                                     ",
"                                    + k P L J j j j j j j j x v v j j j j j K I E E E I k 1 O                                   ",
"                                  X j J k j j j h k h h d b _ _ V N b v j j j j v I E E E G 7                                   ",
"                                # 8 j j j j j G h l N _ _ ' d.D.D.f...V N n v j H j G I E E f 0                                 ",
"                              % 7 h j h j j l n V _ ' d.D.D.S.D.F.W.F.D.j...V N b l j j P E T 8 6                               ",
"                            * 1 f j j j v V A ..p.A.A.n.j.j.c.c.v.C.D.G.F.F.G.p...A B c j I E L 7 @                             ",
"                            3 f h j k v _ =.n.A.V.k.c.c.3.3.c.c.c.x.a.v.C.D.F.F.F.V.=.A v H T Q j 7                             ",
"                          4 1 h j j j N ' n.v.v.c.3.%.' _ _ s.c.c.3.C _ [ %.d.C.F.F.F.%.N k K E I 9 =                           ",
"                        6 < f j j k n _ c.c.3.[ _ _ _ @.=._ 3.c.c.&.C %.@._ V _ } d.D.G._ n j P W P 7 @                         ",
"                        8 f j x h d _ 2.c.s._ ` =.b.m.m.d._ 3.c.c.&.C f.D.S.k.<.' _ v.F.j.V l j T W k <                         ",
"                      7 8 j j j x B #.c.x.` ` n.n.c.c.c.3._ 3.v.c.&.C >.v.m.S.A.S.` | C.F.=.N x G E E f 3                       ",
"                    y 1 j j j j n S x.c.X.C 3.c.x.c.c.c.2._ 3.c.c.&.V 3.c.c.c.v.A.j.C %.G.G.` n j P E T 8 y                     ",
"                  $ 1 g j j j v V 3.c.2.V 2.c.c.c.c.v.v.3._ 2.c.v.&.C 3.c.c.v.c.v.A.p.V s.F.k.A v j T W P 1 $                   ",
"                  1 8 j j j x N #.c.s.S X.c.c.c.c.v.v.c.s._ 3.c.c.&.C 3.c.c.c.c.c.C.A.$._ n.F.=.N k k E W j 7                   ",
"                ; : 9 j j j n _ x.c.[ _ x.c.c.c.c.c.c.c.2._ 3.c.c.&.C 3.v.c.c.c.c.c.S.V._ { G.D.' b j J W R f 0                 ",
"                < > w j j v V &.c.#.V 3.c.c.c.c.v.v.v.c.a._ s.c.c.&.C 3.c.c.c.c.c.v.v.A.j.C =.F.k.V v j P E P 1                 ",
"                < > g j j b C :.3._ *.c.c.c.c.c.c.v.c.c.a._ s.c.c.&.V >.c.c.c.c.c.c.c.b.A.=.C k.F...b j j T W 8                 ",
"                : > g j x b ] :.} V z.c.c.c.c.c.v.c.c.c.p.V s.c.c.&.V 3.c.c.c.c.c.c.c.c.m.A.C -.A.$.D Y Y L E 9                 ",
"                < > w j j n S :.{ C z.c.c.c.c.c.c.v.c.c.a.A 3.v.c.&.V >.c.c.v.c.c.c.c.c.v.S.V >.b.@.4.J.H.) L 8                 ",
"                < > g j h c C :.} S x.c.c.c.c.c.c.c.c.v.a.C a.c.c.&.C >.c.c.c.v.c.v.c.c.v.v.V *.v.$.8./.Y.) L 8                 ",
"                < > w j h n _ :.{ S x.c.c.c.c.c.c.c.x.c.3._ s.c.c.&.S 3.c.c.c.c.x.c.c.v.c.v.C *.v.$.8.^.Y.) L 8                 ",
"                < > w j k b ! :.} S l.c.c.c.c.c.c.c.c.c.s.S 3.c.c.&.C 3.c.c.c.c.v.x.c.v.c.v.C ;.v...6.~.Y.) L 8                 ",
"                : > w j j m C :.} S z.c.c.c.v.c.c.c.c.c.l.S s.c.c.&.C ,.c.v.c.c.c.v.c.c.v.v.C *.v.$.7.~.Y.) P 8                 ",
"                < > w j j m ! :.{ C ,.,.,.,.,.,.,.,.,.,.&.V s.c.c.&.C +.,.,.,.,.,.,.,.,.,.1.V *.v.$.7.~.Y.) L 8                 ",
"                < > r j j b S :.} V ] [ ] ] ] ] ] ] ] ] ] V 3.c.c.&.C ] ] ] ] ] ] ] ] ] ] ] B *.v.$.7.~.Y.) K 8                 ",
"                : > w j j m S :.+.] ] ] ] ] ] ] ] ] ] ] ] [ x.c.v.:.] [ ] ] ] ] ] ] ] ] ] ] ] a.v.$.7.~.Y.) J 8                 ",
"                < > w x h N ! :.l.l.l.z.a.s.3.s.3.3.s.3.3.s.c.c.c.l.>.1.1.1.1.>.2.>.>.1.>.>.2.c.v.@.6.~.Y.( J 8                 ",
"                < > w h h m ] >.c.c.c.v.g.B.N.B.j.c.c.c.v.c.v.c.c.s.V V V V V V V V V V V C C >.v.@.8.~.Y.) L 9                 ",
"                < > w k j b ! *.c.c.k.U.H.Y.T.J.I.r.j.v.c.v.c.c.c.&.S p.f.j.j.d.f.c.j.f.d.v.V *.v.@.6.~.Y.( L 8                 ",
"                : > w j h b ] ,.c.f.I.T.~./././.!.Y.e.c.c.c.c.c.c.&.C s.m.m.m.m.m.m.n.m.C.C.V *.v.@.6.R.Y.) L 8                 ",
"                < > f h j b C :.v.U.T.~.^.~.~.^./.~.Y.N.c.x.c.c.c.&.C 1.c.c.c.c.v.c.c.c.c.v.V *.v.@.4.J.J.) L 8                 ",
"                < > g j j m ! >.h.H.Q.~.~.~.~.~.^./.Q.L.j.c.c.c.c.&.C 1.c.c.c.c.c.c.v.c.c.c.A *.v.@.U ^ ^ H J 8                 ",
"                < > g h j m ] :.M.Y.!.~.~.~.~.~.~.~.^.H.g.c.c.c.c.&.C 1.c.c.c.c.c.c.c.c.c.v.C *.n.@.m h g j L 8                 ",
"                < > w j j n C ;.w.Y.Q.~.~.~.~.~.~.~./.H.g.c.c.c.v.*.V 1.c.c.c.c.c.v.c.c.c.v.C *.v.@.n j j j L 8                 ",
"                < > r j x m _ &.M.J.E.!.~.~.~.~.~.~.!.H.g.c.c.c.v.&.C 3.c.c.c.c.c.c.c.c.c.v._ *.v...b j j j P 8                 ",
"                < > w j j m ! 3.t.H.R.Q.!.~.~.~.~.~.R.P.c.c.c.c.c.&.C >.c.c.c.c.c.c.c.c.c.v.V *.v.$.b j j j L 8                 ",
"                : > w j j b S :.l.e.J.E.E.Q.~.~.~.Q.H.B.c.c.c.x.c.&.C ,.c.c.c.c.c.c.c.c.c.v.C *.v.$.m j j j L 8                 ",
"                < > g j j b ! >.x.:.K.J.R.E.E.E.T.H.r.c.c.c.c.c.c.&._ ,.c.c.c.c.v.c.c.c.c.c.C *.v.$.m j j j L 8                 ",
"                : > g j j b S ,.v.z.,.q.L.H.J.H.P.i.c.c.c.c.c.c.c.&.V +.&.:.&.;.;.;.+.>.;.:.V &.v.$.b j j G L 8                 ",
"                < > f j j b S :.v.x.x.a.<.y.u.y.3.c.c.c.c.c.c.c.c.&.V ] ] S _ ! ] ! _ ! ] ] C *.v.$.b G j j J 8                 ",
"                < > w j j m ! ,.c.c.c.x.x.x.z.c.v.v.c.c.c.c.c.c.c.>.} } [ { { { [ [ } } [ [ } l.v.$.Q ) 0.~ L 8                 ",
"                : > w j j m S ,.x.z.z.d.z.z.z.z.s.c.3.x.d.s.c.c.c.x.3.3.3.l.3.3.3.3.3.3.3.3.3.c.v.$.5.R.J.) L 8                 ",
"                < > w j h m S ,.*.C C C C _ C _ V V _ V _ _ 2.c.c.3._ V _ _ _ _ V _ C C C C C >.v.$.M./.Y.) L 8                 ",
"                : > w j j m S :.} C f.b.v.j.k.k.k.k.k.k.=._ 3.c.c.*.V p.f.k.c.j.k.k.k.k.k.j.A ;.v.$.6.~.Y.) L 8                 ",
"                < > w j j n ! :.} ! v.m.C.m.m.m.m.m.n.m.f._ s.c.c.*.V s.n.n.n.S.m.m.n.n.m.C.V %.v.$.6.~.Y.) J 8                 ",
"                : > w j j b C :.} C x.c.c.c.c.c.c.c.c.c.3._ 3.c.c.&.V 2.c.c.c.c.c.c.c.c.c.v.A *.v.$.7.~.Y.) P 8                 ",
"                < > g j j b S ;.} C x.c.c.c.c.c.c.c.c.c.s.C s.v.c.&.C 1.c.c.c.v.c.c.c.c.c.v.V *.v.$.7.~.Y.) L 8                 ",
"                : > w j j b S :.} C l.c.c.c.c.c.c.c.c.c.a.C 3.c.c.&.C 1.c.v.c.c.c.v.c.c.c.v.V *.v...6.~.Y.) L f                 ",
"                < > e j j b S :.} C c.c.c.c.c.c.c.c.c.c.a.A 3.c.c.&.V 3.c.v.c.v.c.c.v.c.c.v.C &.v.$.7.~.Y.) L 8                 ",
"                : > g j j b S :.[ ! z.c.c.c.c.c.c.c.c.c.a._ s.c.c.&.V >.c.c.c.c.c.c.c.c.c.v.C *.v.$.6.~.Y.) P 8                 ",
"                < > w j j m ! &.} C x.c.c.c.c.c.c.c.c.c.a.C l.x.c.&.C 3.c.c.c.c.c.c.c.c.c.v.C *.f.$.6.~.Y.) J 8                 ",
"                : > g j j m ! :.} C x.c.c.c.c.c.c.c.c.c.a.S 3.v.c.&.C 3.c.c.c.c.c.x.c.c.c.v.C *.b...6.Q.Y.) L 8                 ",
"                < > 9 j j b _ :.} C l.x.x.x.x.c.x.x.x.x.a.A l.x.c.&.S *.x.x.x.x.x.x.x.x.c.c.C *.v.$.5.T.I.) J 8                 ",
"                : > g h j b _ &.} C :.:.:.:.,.,.:.:.:.:.%.C l.c.c.&.C +.:.,.:.,.:.,.:.:.:.,.V &.v.$.E 9.K./ J f                 ",
"                : > , 1 8 d S :.} B ! V C C C ! S S S S C V 3.c.c.&.V ! C V C C C C C V S S V &.v.$.s 2 2 5 g 8                 ",
"                < > > > > s S O.! ! M Z Z ! Z ! Z M M M ! ! +.+.+.! M ! ! M M ! M M ! ! M Z Z O.:...s > > , 5 <                 ",
"                : > > > > s ! O.o.! ! }  .O.O.! o.! } ! ! O.O.O.+.O.! O.o.! ! o.o.O.! o.} ! o.O.&.[ s > > > 5 1                 ",
"                < < < < < s V V V C C V V V V V C V V C V V V V V V V V V V V V V C C V C C V V V V s : < < < <                 "
};
