/* XPM */
static char *result[] = {
/* columns rows colors chars-per-pixel */
"64 64 178 2 ",
"   c black",
".  c #8E8E8E",
"X  c #F3F3F3",
"o  c #767676",
"O  c #959595",
"+  c white",
"@  c #7C7C7C",
"#  c gray4",
"$  c #101010",
"%  c #9B9B9B",
"&  c #848484",
"*  c #F4F4F4",
"=  c gray98",
"-  c #F9F9F9",
";  c gray60",
":  c gray64",
">  c gray63",
",  c gray59",
"<  c #ECECEC",
"1  c #F8F8F8",
"2  c gray66",
"3  c #131313",
"4  c #0B0B0B",
"5  c gray9",
"6  c #252525",
"7  c #AEAEAE",
"8  c #F1F1F1",
"9  c gray86",
"0  c #808080",
"q  c gray7",
"w  c #A7A7A7",
"e  c #F6F6F6",
"r  c #EEEEEE",
"t  c gray61",
"y  c gray47",
"u  c #CDCDCD",
"i  c #323232",
"p  c #7E7E7E",
"a  c #EAEAEA",
"s  c #838383",
"d  c #5F5F5F",
"f  c gray17",
"g  c #782B48",
"h  c #C12B63",
"j  c #6E1939",
"k  c #55132C",
"l  c #892B4E",
"z  c #771B3D",
"x  c #E73477",
"c  c #841E44",
"v  c #661734",
"b  c #92214B",
"n  c gray42",
"m  c #9D9D9D",
"M  c #343434",
"N  c #762F4A",
"B  c #B82A5F",
"V  c #DA82A3",
"C  c #FBD6E3",
"Z  c #DE8BAA",
"A  c #D57599",
"S  c #E296B2",
"D  c #D683A2",
"F  c #741A3C",
"G  c #F49DBD",
"H  c #F5A7C4",
"J  c #F28DB3",
"K  c #F7B4CC",
"L  c #F189B0",
"P  c gray16",
"I  c #464646",
"U  c gray73",
"Y  c #979797",
"T  c #AFAFAF",
"R  c #EB518A",
"E  c #EE6C9C",
"W  c #EB548C",
"Q  c #EA4C87",
"!  c #EB578E",
"~  c gray44",
"^  c gray57",
"/  c #9F9F9F",
"(  c #FDFDFD",
")  c #020202",
"_  c #929292",
"`  c gray52",
"'  c #751C3D",
"]  c #E73678",
"[  c #E73578",
"{  c #E63477",
"}  c #E53476",
"|  c #EF88AE",
" . c #A2A2A2",
".. c #010101",
"X. c #2C2C2C",
"o. c gray53",
"O. c #E1E1E1",
"+. c #DDDDDD",
"@. c #D9C1CA",
"#. c #F9C8DA",
"$. c #F07CA7",
"%. c #9F2452",
"&. c #3F0E21",
"*. c #891F47",
"=. c #A92657",
"-. c #422530",
";. c #868686",
":. c gray56",
">. c #F397BA",
",. c #5D5D5D",
"<. c gray72",
"1. c #040404",
"2. c #F398BB",
"3. c #E73779",
"4. c #841F45",
"5. c #661835",
"6. c #93244D",
"7. c #FEFEFE",
"8. c #FBFBFB",
"9. c gray71",
"0. c gray84",
"q. c #FAD9E6",
"w. c #F6B5CE",
"e. c #8C6775",
"r. c #6C505A",
"t. c #D7AEBE",
"y. c gray77",
"u. c #C8C8C8",
"i. c #434343",
"p. c #D8D8D8",
"a. c #A4A4A4",
"s. c #5B5B5B",
"d. c #989898",
"f. c gray82",
"g. c #CBCBCB",
"h. c gray29",
"j. c #909090",
"k. c #313131",
"l. c #B6B6B6",
"z. c #B9B9B9",
"x. c gray34",
"c. c gray74",
"v. c #C0DCFD",
"b. c #8FC1FB",
"n. c #95ADCA",
"m. c gray78",
"M. c #D1E5FD",
"N. c #6B9CD6",
"B. c #2B5C96",
"V. c #1F426C",
"C. c #97C5FB",
"Z. c #4798F8",
"A. c #A6CDFC",
"S. c #B2D4FC",
"D. c #336EB3",
"F. c #D0D0D0",
"G. c #C8E0FD",
"H. c #9CC8FC",
"J. c #6CADF9",
"K. c #79B4FA",
"L. c #AAD0FC",
"P. c #D6E8FE",
"I. c #DAEBFE",
"U. c #3A7CCA",
"Y. c #214672",
"T. c #183352",
"R. c #98C5FB",
"E. c #A3CCFC",
"W. c #BBD9FD",
"Q. c #2F65A4",
"!. c gray33",
"~. c #CACACA",
"^. c #6B89AD",
"/. c #3A7CCB",
"(. c #244C7C",
"). c #183252",
"_. c #1A395C",
"`. c #2D619E",
/* pixels */
"                      . X X X X X X X X X X X X X X X X X X X X X X X o                                                         ",
"                      O + + + + + + + + + + + + + + + + + + + + + + + @                                                         ",
"                      O + + + + + + + + + + + + + + + + + + + + + + + @                                                         ",
"              # $ $ $ % + + + + + + + + + + + + + + + + + + + + + + + & $ $ $ $ $ $ $ $ $ $ $ #                                 ",
"              % * * * = + + + + + + + + + + + + + + + + + + + + + + + - * * * * * * * * * * * ;                                 ",
"              : + + + + + + + + + + + + + + + + + + + + + + + + + + + + + + + + + + + + + + + >                                 ",
"              : + + + + + + + + + + + + + + + + + + + + + + + + + + + + + + + + + + + + + + + >                                 ",
"              , < < < < < < < 1 + + + + + + + + + + + + + + + + + + + + + + + + + + + + + + + 2 3 3 3 4                         ",
"              5 6 6 6 6 6 6 6 7 + + + + + + + + + + + + + + + + + + + + + + + + + + + + + + + 8 9 9 9 0                         ",
"                              > + + + + + + + + + + + + + + + + + + + + + + + + + + + + + + + + + + + O                         ",
"                              > + + + + + + + + + + + + + + + + + + + + + + + + + + + + + + + + + + + O                         ",
"                              > + + + + + + + + + + + + + + + + + + + + + + + + + + + + + + + + + + + O                         ",
"                              > + + + + + + + + + + + + + + + + + + + + + + + + + + + + + + + + + + + O                         ",
"                              > + + + + + + + + + + + + + + + + + + + + + + + + + + + + + + + + + + + O                         ",
"                              > + + + + + + + + + + + + + + + + + + + + + + + + + + + + + + + + + + + O                         ",
"                      # q q q w + + + + + + + + + + + + + + + + + + + e r r r r r r r r r r r * + + + t q q q 4                 ",
"                      y u u u < + + + + + + + + + + + + + + + + + + + , i i i i i i i i i i i p + + + a u u u s                 ",
"                      O + + + + + + + + + + + + + + + + + + + + + + + @                       d + + + + + + + :                 ",
"                      O + + + + + + + + + + + + + + + + + + + + + + + @                       d + + + + + + + :                 ",
"                      O + + + + + + + + + + + + + + + + + + + + + + + @                       d + + + + + + + :                 ",
"                      O + + + + + + + + + + + + + + + + + + + O f f f g h h h j       k h h h l f f f s + + + :                 ",
"                      O + + + + + + + + + + + + + + + + + + + 0       z x x x c       v x x x b       n + + + :                 ",
"                      O + + + + + + + + + + + + + + + + + + + 0       z x x x c       v x x x b       n + + + :                 ",
"                      O + + + + + + + + + + + + + + + + + + + 0       z x x x c       v x x x b       n + + + :                 ",
"                      O + + + + + + + + + + + + + + + m M M M N B B B V C C C Z B B B A C C C S B B B D + + + :                 ",
"                      O + + + + + + + + + + + + + + + &       F x x x G + + + H x x x J + + + K x x x L + + + :                 ",
"                      O + + + + + + + + + + + + + + + &       F x x x G + + + H x x x J + + + K x x x L + + + :                 ",
"                      O + + + + + + + + + + + + + + + &       F x x x G + + + H x x x J + + + K x x x L + + + :                 ",
"                      P I I I U + + + Y I I I T + + + &       F x x x R E E E W x x x Q E E E ! x x x L + + + :                 ",
"                              > + + + ~       ^ + + + &       F x x x x x x x x x x x x x x x x x x x L + + + :                 ",
"                              > + + + ~       ^ + + + &       F x x x x x x x x x x x x x x x x x x x L + + + :                 ",
"                              / ( ( ( ~ ) ) ) _ + + + ` ) ) ) ' ] ] ] [ x x x { } } } { x x x { } } } | ( ( (  .) ) ) ) ) ) ) ..",
"                              X.I I I o.U U U O.+ + + +.U U U @.#.#.#.$.x x x %.&.&.&.*.x x x =.&.&.&.-.I I I ~ U U U U U U U ;.",
"                                      :.+ + + + + + + + + + + + + + + >.x x x c       v x x x b               ,.+ + + + + + + <.",
"                                      :.+ + + + + + + + + + + + + + + >.x x x c       v x x x b               ,.+ + + + + + + <.",
"                      ) 1.1.1.1.1.1.1.^ + + + + + + + + + + + + + + + 2.3.3.3.4.      5.3.3.3.6.1.1.1.1.1.1.1.d + + + 7.8.8.8.9.",
"                      d : : : : : : : 0.+ + + + + + + + + + + + + + + q.w.w.w.e.      r.w.w.w.t.: : : : : : : y.+ + + u.,.,.,.i.",
"                      O + + + + + + + + + + + + + + + + + + + + + + + + + + + ^       ~ + + + + + + + + + + + + + + + 2         ",
"                      O + + + + + + + + + + + + + + + + + + + + + + + + + + + ^       ~ + + + + + + + + + + + + + + + 2         ",
"                      O + + + + + + + + + + + + + + + + + + + + + + + + + + + ^       ~ + + + + + + + + + + + + + + + 2         ",
"                      O + + + + + + + + + + + + + + + + + + + + + + + + + + + p.a.a.a.& s.s.s.d.+ + + + + + + + + + + 2         ",
"                      O + + + + + + + + + + + + + + + + + + + + + + + + + + + + + + + :.      d + + + + + + + + + + + 2         ",
"                      O + + + + + + + + + + + + + + + + + + + + + + + + + + + + + + + :.      d + + + + + + + + + + + 2         ",
"                      O + + + + + + + + + + + + + + + + + + + + + + + + + + + + + + + :.      d + + + + + + + + + + + 2         ",
"              s.:.:.:.f.+ + + + + + + + + + + + + + + + + + + + + + + + + + + + + + + :.      d + + + + + + + g.~ ~ ~ h.        ",
"              : + + + + + + + + + + + + + + + + + + + + + + + + + + + + + + + + + + + :.      d + + + + + + + :                 ",
"              : + + + + + + + + + + + + + + + + + + + + + + + + + + + + + + + + + + + :.      d + + + + + + + :                 ",
"              : + + + + + + + + + + + + + + + + + + + + + + + + + + + + + + + + + + + :.      d + + + + + + + :                 ",
"j.j.j.k.      : + + + + + + + + + + + + + + + + + + + + + + + + + + + l.~ ~ ~ ~ ~ ~ ~ p j.j.j.z.+ + + + + + + :                 ",
"+ + + x.      : + + + + + + + + + + + + + + + + + + + + + + + + + + + @               ~ + + + + + + + + + + + :                 ",
"+ + + x.      : + + + + + + + + + + + + + + + + + + + + + + + + + + + @               ~ + + + + + + + + + + + :                 ",
"+ + + x.      : + + + + + + + + + + + + + + + + + + + + + + + + + + + @               ~ + + + + + + + + + + + :                 ",
"+ + + c.% % % 9 + + + + + + + + + + + + + + + v.b.b.b.b.b.b.b.b.b.b.b.n.% % % % % % % m.+ + + + + + + M.b.b.b.N.B.B.B.B.B.B.B.V.",
"+ + + + + + + + + + + + + + + + + + + + + + + C.Z.Z.Z.Z.Z.Z.Z.Z.Z.Z.Z.A.+ + + + + + + + + + + + + + + S.Z.Z.Z.Z.Z.Z.Z.Z.Z.Z.Z.D.",
"+ + + + + + + + + + + + + + + + + + + + + + + C.Z.Z.Z.Z.Z.Z.Z.Z.Z.Z.Z.A.+ + + + + + + + + + + + + + + S.Z.Z.Z.Z.Z.Z.Z.Z.Z.Z.Z.D.",
"+ + + + + + + + + + + + + + + + + + + + + + + C.Z.Z.Z.Z.Z.Z.Z.Z.Z.Z.Z.A.+ + + + + + + + + + + + + + + S.Z.Z.Z.Z.Z.Z.Z.Z.Z.Z.Z.D.",
"o o o F.+ + + + + + + + + + + + + + + G.H.H.H.J.Z.Z.Z.Z.Z.Z.Z.K.L.L.L.P.+ + + + + + + + + + + I.H.H.H.K.Z.Z.Z.Z.Z.Z.Z.U.Y.Y.Y.T.",
"      2 + + + + + + + + + + + + + + + R.Z.Z.Z.Z.Z.Z.Z.Z.Z.Z.Z.E.+ + + + + + + + + + + + + + + W.Z.Z.Z.Z.Z.Z.Z.Z.Z.Z.Z.Q.        ",
"      2 + + + + + + + + + + + + + + + R.Z.Z.Z.Z.Z.Z.Z.Z.Z.Z.Z.E.+ + + + + + + + + + + + + + + W.Z.Z.Z.Z.Z.Z.Z.Z.Z.Z.Z.Q.        ",
"      2 + + + + + + + + + + + + + + + R.Z.Z.Z.Z.Z.Z.Z.Z.Z.Z.Z.E.+ + + + + + + + + + + + + + + W.Z.Z.Z.Z.Z.Z.Z.Z.Z.Z.Z.Q.        ",
"      !.0 0 0 0 0 0 0 ~.+ + + + + + + R.Z.Z.Z.Z.Z.Z.Z.Z.Z.Z.Z.E.+ + + + + + + + + + + m.0 0 0 ^.Z.Z.Z.Z.Z.Z.Z./.(.(.(.).        ",
"                      O + + + + + + + R.Z.Z.Z.Z.Z.Z.Z.Z.Z.Z.Z.E.+ + + + + + + + + + + :.      _.Z.Z.Z.Z.Z.Z.Z.`.                ",
"                      O + + + + + + + R.Z.Z.Z.Z.Z.Z.Z.Z.Z.Z.Z.E.+ + + + + + + + + + + :.      _.Z.Z.Z.Z.Z.Z.Z.`.                ",
"                      O + + + + + + + R.Z.Z.Z.Z.Z.Z.Z.Z.Z.Z.Z.E.+ + + + + + + + + + + :.      _.Z.Z.Z.Z.Z.Z.Z.`.                "
};
