/* XPM */
static char *empty_space_tile_64x641677356000[] = {
/* columns rows colors chars-per-pixel */
"64 64 230 2 ",
"   c #2F5B1E",
".  c #2E6A1F",
"X  c #2C7019",
"o  c #1F6D22",
"O  c #2D6D24",
"+  c #2A6E27",
"@  c #336E24",
"#  c #316D29",
"$  c #396D2A",
"%  c #336123",
"&  c #2C7325",
"*  c #257529",
"=  c #2D742B",
"-  c #267D2D",
";  c #2B7B2B",
":  c #267525",
">  c #347326",
",  c #3A7324",
"<  c #3E7927",
"1  c #34752C",
"2  c #3B752B",
"3  c #347A2C",
"4  c #3C7A2D",
"5  c #307826",
"6  c #247434",
"7  c #2C7533",
"8  c #2D7C33",
"9  c #2C7A3A",
"0  c #277F33",
"q  c #337632",
"w  c #3A7631",
"e  c #357B33",
"r  c #3C7C33",
"t  c #317638",
"y  c #347D3A",
"u  c #3A7E3A",
"i  c #40711F",
"p  c #427624",
"a  c #457926",
"s  c #4B7B23",
"d  c #42752C",
"f  c #437C2D",
"g  c #4B7E2B",
"h  c #487726",
"j  c #447431",
"k  c #4B7734",
"l  c #427D33",
"z  c #4B7D33",
"x  c #437D39",
"c  c #4B7E3B",
"v  c #527A37",
"b  c #537E3C",
"n  c #547B39",
"m  c #2F7F42",
"M  c #357E43",
"N  c #3C7D42",
"B  c #5A7B42",
"V  c #2C812E",
"C  c #31822E",
"Z  c #38812F",
"A  c #2D8233",
"S  c #2C8A36",
"D  c #2F823C",
"F  c #268235",
"G  c #348435",
"H  c #3C8235",
"J  c #328936",
"K  c #35833B",
"L  c #3C833B",
"P  c #358B3B",
"I  c #3C8B3C",
"U  c #3B903D",
"Y  c #44812F",
"T  c #4B822D",
"R  c #4B8C2E",
"E  c #54842B",
"W  c #57882F",
"Q  c #55852A",
"!  c #438235",
"~  c #4B8334",
"^  c #4D8936",
"/  c #44843B",
"(  c #4A853B",
")  c #448A3C",
"_  c #4B8A3D",
"`  c #408937",
"'  c #538533",
"]  c #548A35",
"[  c #5C8D35",
"{  c #52843C",
"}  c #528B3D",
"|  c #5B8D3B",
" . c #588530",
".. c #4A903D",
"X. c #41903F",
"o. c #53913C",
"O. c #5C923D",
"+. c #599237",
"@. c #638A34",
"#. c #628C3D",
"$. c #61873A",
"%. c #62943C",
"&. c #338343",
"*. c #3B8442",
"=. c #378845",
"-. c #3D8B42",
";. c #368648",
":. c #368C49",
">. c #3D8B4B",
",. c #39874B",
"<. c #3C9243",
"1. c #3F904D",
"2. c #448542",
"3. c #4A8541",
"4. c #458B42",
"5. c #4C8C43",
"6. c #438C4B",
"7. c #4C8D4A",
"8. c #468649",
"9. c #538644",
"0. c #5A8543",
"q. c #538D43",
"w. c #5B8B44",
"e. c #538D4A",
"r. c #5C8C49",
"t. c #5E864A",
"y. c #449143",
"u. c #4C9244",
"i. c #47934A",
"p. c #4C924A",
"a. c #45994C",
"s. c #4B9B4C",
"d. c #549245",
"f. c #5B9344",
"g. c #5E9946",
"h. c #54944B",
"j. c #5B954B",
"k. c #55994D",
"l. c #5B9A4D",
"z. c #539B45",
"x. c #498A51",
"c. c #459355",
"v. c #4E9B53",
"b. c #4F9652",
"n. c #539753",
"m. c #5C9651",
"M. c #549A52",
"N. c #5C9C53",
"B. c #539D5B",
"V. c #5D9D58",
"C. c #628E4A",
"Z. c #6C8C4D",
"A. c #618F46",
"S. c #639444",
"D. c #6A9545",
"F. c #629946",
"G. c #6C9A44",
"H. c #62944B",
"J. c #69954A",
"K. c #639B4C",
"L. c #6B9C4B",
"P. c #749A4B",
"I. c #639551",
"U. c #6C9352",
"Y. c #639C54",
"T. c #6B9C55",
"R. c #619D58",
"E. c #6C9D5A",
"W. c #6B9458",
"Q. c #749E5C",
"!. c #7C9E5E",
"~. c #729E53",
"^. c #59A14D",
"/. c #4FA055",
"(. c #55A354",
"). c #5CA155",
"_. c #5DA35A",
"`. c #5AA95A",
"'. c #65A14D",
"]. c #6AA14B",
"[. c #72A44D",
"{. c #64A255",
"}. c #6BA354",
"|. c #63A35B",
" X c #6AA55C",
".X c #6BA95D",
"XX c #64A95D",
"oX c #72A454",
"OX c #74A856",
"+X c #72A55C",
"@X c #78A75F",
"#X c #74AC5C",
"$X c #7AAD5D",
"%X c #7AB15D",
"&X c #709C61",
"*X c #5EA969",
"=X c #6CA562",
"-X c #66A963",
";X c #6CAB62",
":X c #63AD6B",
">X c #6AAD6A",
",X c #64A764",
"<X c #73A562",
"1X c #7DA363",
"2X c #72AC64",
"3X c #7DAA66",
"4X c #73A669",
"5X c #73AE68",
"6X c #7CAC6A",
"7X c #7BA76A",
"8X c #6DB16A",
"9X c #66B667",
"0X c #73B166",
"qX c #7AB264",
"wX c #74B46B",
"eX c #7AB36B",
"rX c #7CB86C",
"tX c #76BA67",
"yX c #66B174",
"uX c #7CB671",
"iX c #7DBC73",
"pX c #83A558",
"aX c #82A464",
"sX c #83AA6B",
"dX c #88A467",
"fX c #84B165",
"gX c #87B76E",
"hX c #8CB574",
"jX c #82BB73",
"kX c #87C079",
/* pixels */
"o.OX].f w. Xr x eXr N.I e n.r m./ 1 5. Xd.r 5.R.p.H / u 3.L h.|.L e y._ d.l.4 q ~ H U K q V.uX) ^ .X}.d r.=Xu B 8Xx R.L q N.x h.",
"Z ^ .Xq.l I.=X/ ^ 4  Xk.n.=X5.q.( p.) 5.w 5.) 5.g.` ! _ K.( ~ < 4.e 4 > _ N.u.3.}.u.X.e 8.5Xm.r Z _ .Xw.x R.=X3.{ r =Xh.h.;X5.q.",
"L 4.d._ E.N. X/ ~ K..X5.r ! l ~ |.l O k.! h./ ! ! Y d.f.K.l T T (.L ) _ ! ! / 7.] H u.5 ( H.2 d.L 4.h._  XI.=X! ~ H.2X5.r ! 2 ~ ",
"4.) L / 5X( h.l f.#Xl.Z 4 ! q.I.N.> ) 0XH 3.k.4 4 4 q.u.h.r _ l.V.u _ {.j.1 @ L ~ Y ^...( w.} rXy./ L / 0X! e.l F.oXj.l ! 4 } '.",
"I = h.p.) @  Xl F.K.l ! l.e.q.w.1 d.iXN.r w l.r y.G y y 6.u 6.4.r # 2 f.l.( L / {.^ ) ^.q.w.|.m.L = p.h./ O  Xl K.j.4 _ N._ } f.",
"5.N..X/ 2.5.;X/ ^ ^ ! j.h.l ! f.4 k.).w ).! / h.-.-.6.8 *.u 4.L 1 h.5.~ l ! 5.h.l.3 5 ^ f z j.& 5.N..XL ) u.;Xc { ~ ! k.k.4 Y d.",
"J.qXY.> l.XX5.5.! 4 5.M.2.x h.eX|.r 1 5.0X_ / h.4 ..N.r / ) q.^ e.uXH.( q.! L 7.r e X.! z w.5.t J.3XK.1 m.-X7.7.~ r 5.n.4.L k.0X",
"#.g ] ! 4 ) w 3.}.r L -.L / x ) kX1 h.iXd.r h./ +.g.F.f } J.J.a 5X=X@ ( jX).r q H I (.! f.=XL ;.#.k } ! r 4.w 7.{.! / L y 4.` ` ",
"[ T g K.~ ~ _ |.%.y 6.O.E *XyXh ( I 9.{ S s.1Xr.^ / K 2.d.^ u y l l 2 0XN.+ 7.5.7.}.] < L x.V.| ^ ! < {.f ' ~ oX[ K ;.%.g :X:Xa ",
"] O.f.F.o.d.^ ~ ! ~ {.N.l q.Y.3.b _ S S I.aXj.5 } h.*.& ! d.2.8 m.l.r ! / 7.|.1 x q.R ^ 2.N 3.< ^ d.f.j.d.w.{ { / } K.XXH d.R.7.",
"/ k.h.! } _ _ ^ D Q [ >.t s E ,.s.!.XXG k 5.G Z.#Xd.u 4.l._ ) B. Xe.) 3.7.e.n.3.m.} ^ l.7.*.h.} / d.N.4 d.l { 5.9 Q Q >.6 h E &.",
"q / 2.3 d.4 ~ {.4.~ a L *.f ^ B.- 0.sX5.( v.I !.L.! u _.{.< w :Xh./ N.R.7.x q n.+X^ ..^.( 3.N.l.q / 5.1 h.2 ) R.y.~ a -.K z ^ B.",
"y L ) L |._ ^ d.O.i.y.g.f.*.6.3XU.; I l 5.1Xw.S < / ) H Y Y ! -.l e.;X) w 7.r u w.d I ) 4 } h.u 3 / L / N.7./ p.g.p.i.f.F.*.6.qX",
"p.p./ 1 h.l._ 2 [ =.&.[ %.>.&.+.hXP q.0.G q.n A ] j.5.1 ! f.d.e r ( d.H h.8X4.O #.! -.3 2 | q.K h.m.r r 5._.L 3 W K &.W %.&.M [ ",
"l.f.! 4 r _ / ) ~ H H ! ! ) u 2 L r Z.aX(.J r q.}.q.I 5.K.| _ n.^ 4 4 d.2XXX` ) P.q.>.y ~ G.r.>.I.j.l r r 5./ / ^ H / r q./ 2.4 ",
"^ ~ ^ {.! r ! _.P O.].1.9 T g.c.q.b ; i.dX0.- u.O.4 1 h.O., > n.{.o.4 ^ d.> 3 {.@.! :.K f.G.2 6 5.l q.m._ 3 ! ).K [ [.;.K s J.c.",
";.9 i.q., O.#X' = -.2.4 j.f.j.r j.f.d.3 ` H ) / X u.i.9 M 8.( b ! p.G G G u./ 5.K 8 p.3 h.x 9.m.;.y p.h., f.#X^ t *.2.4 j.f.g.< ",
"6.t 2.d.l l } ~ 6.q H 4 q.q.l h., l.'.) r k.d.r } Y.7.1 K B.h.r ^ } > ` k.l.@ ^ p.& k.H & 3.iX;X6.y 2.h.~ ! } z 6.t r 4 q.} l d.",
"t V.XXq.! _ ( / = ) ;X^ > h.2.8XH.5.4 L = h.m.e.W.{ z } _ ) P S f.K.^ < f.^ ~ OXk./ ;XXXl x q.d y _.;Xq.~ _ 5.! q ) .X( 2 h.) >X",
"3 .X{.! _ N.7.L _ j.f.! ! eX7.8.#X_ q.N.4./ / O e.d ] G.| f K &.f } .X2 '.Y g.d.! 4 d. XT._ > } 3 ;X X! q.N.7.L _ h.j.! / wX5.8.",
") 5.2 2 l.m.u y h.5.> ! 5.m.u 7 ~ ( 8Xh.4.L R.( 8 ) K.%.' H.R.u L q u.u 2./ h.q d.r 2 ! _ q.q.jX( 5.2 < m.m.u y z._ . ! q.m.y 7 ",
"r _ 5.~ ( _ / I 1 p.! ! l 3.h.8.j.4 N./ k.r ;X,XG X...! ~ I.I.x B.4.t M.7 u K B.tX_ l._ 5 3. Xj.r 5.q.! _ ) / L 4 d.! ~ ! 3.e.7.",
"r p.;X{.4 ( m./ y u.5.@ } 0X X/ jX! 3.p.>Xr u w q.q.L y N L x ( L u._ eXN.3.& XXh.r ;Xn.2.5.V.e u h.;X{.4 _ l.) e u.4.> q.5X|.2.",
"n.q d.;Xd._ j.L K K |.! j.H.l ! ;X9.w & 7.8.5.7.| 1XR.M m K G ` > } ~ c gXq.2 K.u q h.r h.r L 4.n.q h.2Xd._ h.r P y ).! j.I.l c ",
"fX).5 9.j 3 3 { |.L p.e 7.u = XXB.  W.-.o U.hXL 1 <.6Xh.1 B S ) } 4.y i.3 ^ 4.q A.x.t { oXB.>.K.%X].2 ) 1 5 r 3.K._ y.A J I > '.",
"{ ) G c Y.G u.f.q.w x u m.n.r ( A I.<X4.s.Q.C.I e.0 B e / I.=.L f.2.&.y.u.~ 5.L 2.$XoXN 6.@XL.y ^ _ ! L M.H p.h.q.4 1 / V.5.4 _ ",
"d y.y.5.=X-.4.H.~ c ( R.&Xm.~ j.y uXm.H u.} d ` R.J 9.I H r.P 3.f./ K L ).~ {.,X&.f.f.*.y | w.t H h.-.6.-X5.q.f.( x l R.4X9.~ j.",
"c _.&.e.e.-.* w.d.3.x 5XR.5.) }.3 d.4 / 2 f f.l.q.I E.p.u 9.G 5.f.q.y q d.~ l.,Xf.6 t | z t 8.D.2.,XB x.n.5.d } u.5.B &X&Xc i.V.",
"z v.* x 5.K : 9.h.H + p.2.2.! ) 5.` r .X_ ! d.d.l 8 A.H u J.<.~ | N.K e Y Y f 2.f.&.6.%.' n.>XJ.u V.t L 2./ $ } y.I * B e.x 6.G ",
"b I 8 w R.y G w.Z H / L 3 ) ) Z m.i.G m.Y.Z : { c ; { ; 3 U.u.{ p d.e u.! +._ / 6.[ F.6.*.L.oXy x 3.u r V.r ! q.G G y 2.u r ) G ",
"S.I G 9.E.e ` w.) H {.5.e / _ z.c 8 0 j j.I A E.w.I J.L ; w.) r.g ! e p.d.O.l.5.6.g [ 6.*.' ] = d._ r 2.|.u ) q._ ! k.k.H w ) l.",
"J.) & I.9.G H J.#X, l.e.q.l l Y.9.0 a.c 0.I P 0.J.G C.) I C.I w.OX_ ) 4.o.p _ 2 | 2.8.O.] *.-.T F.] @ k.7.) L d.~.f d.p.L ! ~ J.",
"r.l q.( O q.<X2 ! H u.3 ( 3./ h.q E.3X` ) H.2 A z.u.2.L K -.y.3 2.7XB % n.A K m.) 3.2X( j {._ ` f.l ( ~ 2 d.Y.l _ 3 _ 5 ) u.5.u.",
"u ) h.4.( m.)._ 4.q.N.! 5.5.u x i.b C.) i.3X<X; ! ! / 8.u q H / y x c I.8Xe 5.6X/ ) q.~ q._ 4 u.r ) 5./ ) l.N.) ..^ {.) ) / / ) ",
"L ).p.) p.) ; e d._ 5.w h.V.5.r y.~ r.e / 0.fXI f f.j.x j h.m.) A 3 u. XN.! E.!.) h.w ( e.! _ l.H `.k.I X.u.H 3 u.) z.r u.k.5.u ",
"r ` H r 4.) r u.r / _ > 3.m.h.) -  X2Xu.-Xk r.L { Y.j.w (  XR.l y.) 4._ w 2 _ c m.m.3.! ~ _ l.j.H ! ! H ! ) ) 4.! ! ) > _ N.m./ ",
"_ w w ( ( e.m.N.> q.N.l / u 4.2.I Y.H.3 ).v r.G u.` H _ M.u.q u +Xm.( 5.h._ 3 U =X( j.d.2 / } l } > 2 5.~ 3.I.l.> u.l.! / H h.L ",
".X( 9.m._ 9.j.c ~ j.j./ h.2.u.1 a.c 9.= 3 9.6X4./ _ ) p.N.H : K C.}.5.4.;XwXI <.m.@ 5.).) ! ( ^ .Xl } }.9.~ q.~ H z.l.u.u./ 5.3 ",
"d.! _ h./ _ e.l q.d.r 4 m.u.p.1 G { 1X).u.Q.+XP e.|.d.^ d.h.2.7.j 5.L ; e.4Xe J q.5./ k.k.! } j.q./ _ h.3._ 5._ ..u.` ! h.3.h.q ",
"L H L / H H L L _ r.! 2 L & 4.y.2.Q.Q.; q m.j P 3XY.d p j.d.9.4XV.=.0 6.3.t.$ M.9.kX_ H k.Y d.q.3 4.) 3 G H H H ..d.H 3 ! 1 5.) ",
"+.K.( d._ ! '.[ I 1 4.h.r 2 } ( f._ H u.^ j.! 7.( / u.q r 4.t 6.fX} l tXr l w.gX<.c <X4.* 9.c 0 R P.A n.q.V pX+.t L 6.) ! f ! ^ ",
"f.^ l / ) _ j.O.h.L 5.N.h.( d.R.} ! 5 ) w.eXR.r L 3.5./ 5.M.2./ ~ } 5./ q N.|.r.q I m.x ( _.L L F.| I B / ) | ^ p.L 4.N.4._ z.l.",
"}.q.j.x x h.f ( 5.l r h.m./ r 5.f.( H u.c j.h.) r h.5.5.h.h.5.r , / p.u 2.7.j.c ~ * 0 b Q.(.G  XL.Z I.r u Y.3 | h.1 l V.h.H ) ) ",
"3.! -X/ / ;X! l.f.( , l p.L + K w.H ) {.~ $ 3.h.y p.2.5.5.l _ q.! 3.n.n.6.q q 7. XL r ( j.L + q.} G sX*.L aXV r.j.! 2 / u.u = u ",
"u / 5X( e.iXx 5..X}.! > 5.4.L p.} 2 5 N.T.w.j.p.u 2.1 4.d.< } Y.! M.M.p.y K u 5.4.9.w.e ; j.K.u l <.1X4.n.sXI (  X2X! > h.4.e k.",
"3.7.N.! j.;Xr # l.{.5.r k.h./ 3.f.d.5 3 h.9.l.L h._ r 5.l.( ( d.` _ L 2.u 7.u.4.; b H.U G 1XhXu.r p.9.3.|.<X4.q h.;X) 1 ).k.q p.",
"L 3.< ! Y.d.2.p.u 3./ ) m.5.r ! f..XH & ( 2 5./ w.d.d._ 5.( r 5.u.< ! ) 5./ h.) j.j.q.h.p.d.j._ I q.u ~ Y.u.( 4./ 4.L ) ).u.2 ` ",
"4.k.2 o.g.O ) 8Xn.4.u ) d._ ~ j.2 d.4 ! <Xl ( 2.p } {.! 1 / L |.o.` {._ 3.2 m.4 { l.G 2 { X.I v -.0.G } f.; k 9XB.y L h._ ! _ O.",
"O.%X}.< _ E.r / eXw R.r u p./ l.) 3 u..Xd.! q.|.p.3 L H _ L m.N.8 L ) / R.h.O ) ~ H L K q j.0X` +.OX}.a q.|.r / 5Xc |.2.= n.x j.",
"f ^ .X_ l N.=X3.j.l ;Xh.n.R.( / / u./ _ 4 ( ! } Y.! / ^ l.( ~ 2 i.3 4 4 ~ j.5.2.+X5.) y e.2Xj.! f } #X..l N.=X( { l  XM.h.-X5._ ",
"H 2.d._ |.N. X( f f.2X( ! ! ! } {.H X k.H h./ l ^ f d.g.K.f ^ ~ _.e ) d.4 / 5./ { f ) 5 ( r., h.L 3.h.) |.N.=X! { K. X3.r ( < ! ",
"4./ u ) 0X( h.l D.@XY.l r l } F.).2 2.wX/ 3.l.r H 3 5.d.q.r q.m.).q _ }.d.r u r ~ l l.u.( 9.^ tX4.2.L / 5X! h.l J.OXf.l ! l } K.",
"*.1 p.k.3.O  Xr K.'.! 3.l.d.} | 2 e.uXN.w 4 k.w i.y K q I u i.5.u r 2 } K._ r u T.~ ) ^.q.| Y.l.I = p.h.) @ =Xl K.H.l _ l._ ^ z.",
"4.N.;X( 5.5. Xx f ! r k.h._ ~ K.w e.V.w N.H / p.6.K -.y y y 8.*.O |.q.2 _ / / n.j.3 5 ^ a ~ h.: 4.m..X/ 3.5.=X! ~ ~ ! k.h.4 ! j.",
"g.qXY.> l. X5.2._ H 2.).L x _ 2X=Xr w e.wX2./ n.4 ..).! l ! d.! 5.eXj.~ f.l / n.u H y.` l q.5.8 g.qXK.> m. X5.3.l 4 u.n.2.L h.tX",
"+.g ] ! d _ w 5.).G ; 6.q 4.! q.jX1 e.iX5.L h.L ] f.K.T | F.L.a uXR.@ r.rXd.u 3 y L `.H d.2XK &.O.T | ! l _ w ) |.! L L L 4.) ! ",
"| ~ Y K.~ f { ~.%.y *.[ ' :XyX, 3.I { b S s.aXr.' ) L 6.d._ q 9 c r q wXN.# n.2.5.}.] f N 7.R. .o.Y Y K.~ z ' oXJ.3 X.r.{ `.9Xj ",
"} f.j.l.d.f.( ~ ) ^ {.)./ d.}.4.{ ( S A H.1Xq.1 d.h.y & l f.) 7 Y.h.K / x e.-Xq l } T _ 2.N ( p _ d.l.l.| w.{ { ` _ {.).! d. Xu.",
"~ j.l.! _ _ ( q.9 s Q ;.7 h E ;.s.aX;XA k 5.A C.#Xd.y 2.l._ ` B.+X5.) 5.3.e.h.y l.} ^ l.x.x 9.^ ` k.l.! 5.( _ 9.V k { I * j { I ",
"w / 2.3 p.e ) |.y.] T -.*.f ~ B.- 0.3Xq.3.v.X.aX'.l e ).{.< w :XC.l M.).3.l w i.#X_ ..V.3.3.R.j.3 ) 2.3 e.r ! R.u.^ ~ H / l _ n.",
"w / / L _.5.) h.g.p.i.F.f.L 6.qXU.; I ! 9.3Xr.P p ! ) u ! ~ l -.l _ XX/ 2 j.3.I O.f -.y.l { d./ w / 4.L |.5./ h.l.u.u.K.H.L 4.eX",
"e.h.I 1 k.m.3.w Q &.9 [ %.;.M | hXP q.0.G 5.v - ] j.2.5 ~ z.q.e ~ _ u.H e.5Xe.& [ H -.8 2 w.q.K h.h./ 1 k.m.2.w { C V w.C.J V r.",
"R.j.x w H 5.3.~ ^ H H ! _ 5./ 4 G l Z.aX(.G 3 q.}.d.L 5.K.O._ n.f.4 Z d..X|.L e G._ :.8 ~ J.d.-.N.j.x r ! 5.( / ~ H ! ! _ 4./ w ",
"{ ! / |./ r x Y.-.%.G.6.9 ' f.6.5.b = s.dX9.V u.O.f 3 h.g.a 2 M.K._ 3 u.j.d r ).@.` :.&.K.P.d 9 5.x ~ {.( r ! {.G S.T.) ; c r.y."
};
